<?xml version="1.0" encoding="UTF-8"?>
<!DOCTYPE svg PUBLIC "-//W3C//DTD SVG 1.1//EN" "http://www.w3.org/Graphics/SVG/1.1/DTD/svg11.dtd">
<!-- Creator: CorelDRAW 2017 -->
<svg xmlns="http://www.w3.org/2000/svg" xml:space="preserve" width="50mm" height="39.959mm" version="1.1" style="shape-rendering:geometricPrecision; text-rendering:geometricPrecision; image-rendering:optimizeQuality; fill-rule:evenodd; clip-rule:evenodd"
viewBox="0 0 5910 4723"
 xmlns:xlink="http://www.w3.org/1999/xlink">
 <defs>
  <style type="text/css">
   <![CDATA[
    .fil6 {fill:none}
    .fil8 {fill:#FEFEFE}
    .fil1 {fill:#FEFEFE}
    .fil10 {fill:#373435}
    .fil7 {fill:#373435}
    .fil3 {fill:#FFF212}
    .fil16 {fill:#FFF212}
    .fil14 {fill:#ED3237}
    .fil18 {fill:#ED3237}
    .fil4 {fill:#C8C5E2}
    .fil2 {fill:#C8C5E2}
    .fil15 {fill:#3E4095}
    .fil17 {fill:#3E4095}
    .fil0 {fill:black}
    .fil13 {fill:#532582}
    .fil11 {fill:#BA7E4A}
    .fil12 {fill:#F7B429}
    .fil5 {fill:#373435;fill-rule:nonzero}
    .fil9 {fill:#373435;fill-rule:nonzero}
   ]]>
  </style>
 </defs>
 <g id="Capa_x0020_1">
  <metadata id="CorelCorpID_0Corel-Layer"/>
  <g id="_2712145072224">
   <path class="fil0" d="M2799 3908c8,-13 19,-19 35,-15 -14,1 -25,6 -35,15zm2309 -1907c3,9 6,18 8,27 1,-1 3,-3 4,-4 36,-39 70,-81 104,-124 202,-160 378,-332 506,-491 113,196 -163,661 -620,967 -5,12 -11,23 -18,34 40,-26 79,-54 118,-83 32,-24 64,-50 95,-77 231,-116 438,-249 596,-378 94,286 -582,898 -1346,948 -4,7 -8,14 -12,20 233,-12 464,-77 675,-176 81,-38 162,-84 241,-135 142,-49 272,-104 383,-161 32,279 -698,709 -1406,616 -5,6 -10,11 -16,17 205,28 420,14 631,-38 89,-22 181,-51 270,-88 123,-17 237,-41 337,-69 -24,256 -749,506 -1371,304 -7,5 -13,9 -20,13 161,55 332,80 502,80 157,32 307,49 437,51 -78,196 -679,237 -1133,-33 -5,2 -10,4 -15,6 106,64 222,112 340,146 57,16 117,29 177,39 40,15 79,28 116,39 -95,125 -502,50 -800,-201l-1 0c1,9 0,17 -1,23 -3,11 -5,22 -7,33 0,2 17,3 17,5 -9,98 17,192 23,315 0,1 -16,8 -16,9 -1,1 -1,4 1,7l1 1 0 2c7,129 -45,383 -174,471 -1,1 -3,2 -5,4 -40,39 -129,115 -203,162l-35 122c-6,19 -45,48 -67,32 -103,267 -481,422 -729,130 -91,-107 -119,-221 -106,-326 -2,-1 -4,-3 -6,-5 -4,-5 -7,-3 -14,-7 -10,5 -7,3 -17,5l-2 9 -16 -6c-5,-36 7,-38 5,-53 -4,-3 -7,-3 -12,-3 -1,8 2,3 0,11 -6,1 -16,-5 -23,-6 -8,-1 -20,3 -28,3 -2,-10 6,-37 1,-44l-5 24c0,4 -5,22 -9,38 -6,-7 -15,7 -25,29 -5,0 -6,-1 -7,-1 1,-6 2,-11 2,-15l0 0c6,-2 5,-4 8,-11 3,-8 8,-44 8,-50 -6,10 -10,33 -13,45l-2 8c-2,-14 -17,22 -32,63 2,-7 3,-13 5,-21 3,-13 8,-32 12,-44 5,-15 16,-54 20,-65 4,-9 6,-15 3,-21l-4 9c-4,-3 -5,-6 -9,-9 -5,-4 -5,-1 -11,-6l-6 3c-1,-3 0,-2 -1,-5 -1,-4 0,-1 -2,-4 -20,35 -31,105 -45,139 -4,11 -13,35 -15,46l-18 0c8,-35 28,-79 17,-91 -22,-25 -49,71 -61,105l-6 -14c1,-22 6,-50 2,-63l1 -2 -1 0c-1,-3 -2,-5 -4,-6 -1,0 -2,2 -4,6l-1 0 0 3c-6,13 -22,68 -29,91l-6 0c1,-30 11,-93 10,-104 6,-26 14,-57 18,-76 4,-19 26,-79 39,-95 10,-12 8,-22 14,-31 13,-1 5,9 25,-2 7,5 15,6 19,-2 -12,-7 -31,-6 -45,-6 -12,2 -28,1 -45,-4 -104,400 -136,460 -18,5l-61 -22 -213 -133c-62,-30 -197,-88 -206,-180 -1,-8 -4,-32 -8,-59 -7,-44 -14,-95 -14,-106 0,-11 18,-88 37,-152 12,-38 24,-71 35,-83 3,-13 6,-27 9,-44 21,-101 56,-274 156,-392 9,-72 17,-119 26,-159 3,-13 6,-24 9,-36 -60,12 -137,12 -238,-13 -335,199 -749,206 -822,68 38,-5 79,-11 121,-20 62,1 123,-3 181,-9 14,-2 27,-3 41,-5 -5,-4 -10,-7 -14,-11 -397,51 -768,-70 -804,-232 128,19 279,27 439,21 55,9 110,15 165,19 -6,-7 -11,-14 -17,-20 -522,-39 -976,-324 -961,-535 95,44 203,86 322,123 82,51 167,95 252,131 85,36 173,66 261,89 -4,-7 -7,-14 -11,-21 -559,-147 -996,-560 -933,-784 100,75 219,151 351,222 69,63 142,121 215,172 88,61 181,115 278,161 -3,-9 -5,-18 -7,-27 -558,-273 -931,-804 -815,-1026 135,154 318,318 526,470 26,32 54,62 81,91 51,54 105,105 161,152 0,-8 -1,-17 -1,-25 -448,-381 -675,-933 -524,-1117 101,178 246,376 419,567 26,48 53,95 82,139 12,18 24,37 37,55 1,-12 3,-25 4,-37 -296,-438 -379,-945 -214,-1090l-1 -3c-21,-55 -22,-183 -11,-138 85,361 439,1212 1240,1736 217,41 251,47 229,148 -58,19 -130,132 -139,195 -7,52 5,106 37,155 44,67 109,123 191,156 24,-26 55,-50 109,-79 33,-18 69,-29 105,-41 18,-5 35,-11 53,-17l1 0 1 0c6,-1 11,-3 16,-6 5,-3 9,-7 12,-12 9,-14 18,-27 27,-41l4 0c8,0 18,-1 27,-2 18,-2 36,-3 55,-2 9,0 16,0 21,-1 5,-1 9,-3 14,-6 8,-5 16,-5 24,-4 4,0 8,1 12,0 4,-1 8,-3 12,-5 6,-3 13,-6 20,-7 7,-1 14,-3 21,-6 9,-3 19,-7 30,-7l38 -2c2,-9 6,-17 10,-23 5,-6 10,-10 17,-13 3,-53 4,-98 1,-141 -3,-44 -8,-88 -16,-140 -4,0 -7,1 -11,2 -7,2 -15,5 -24,2 -2,-1 -4,-1 -6,-2 -8,-2 -16,-4 -21,-11 -5,-7 -5,-15 -5,-23 0,-3 0,-6 0,-9l0 -1 0 -1c5,-25 1,-46 -3,-63 -6,-24 -8,-36 13,-50 13,-9 18,-7 29,-3 4,2 11,-2 18,-1 0,-9 0,-19 0,-29 -1,-27 -1,-55 2,-79 3,-17 6,-34 10,-50 5,-17 11,-33 20,-48 11,-18 23,-34 37,-50 15,-17 32,-33 50,-47 12,-10 26,-18 40,-25 14,-7 29,-12 44,-17l0 0c30,-9 64,-11 96,-6 39,6 72,22 107,41l4 2c27,15 56,27 76,52 14,17 26,35 37,55 19,34 48,86 50,127 2,28 -1,56 -4,84 -1,11 -2,23 -3,34 2,0 3,1 5,1 9,2 19,3 26,10 5,5 9,12 11,19 2,7 3,13 4,20 1,10 -1,20 -4,29 -2,9 -5,17 -8,25 -3,7 -5,14 -7,21 -2,7 -2,15 -2,23 0,8 0,16 -5,24 -3,5 -7,8 -11,11 -5,2 -10,3 -15,2 -4,0 -7,-2 -11,-4 -3,-2 -6,-4 -10,-7l0 0c-7,-5 -15,-11 -18,-8 -3,4 -5,7 -7,12 -1,5 -2,12 -2,21l0 0c-4,48 -8,96 -9,144 -1,46 0,92 5,138 26,13 132,47 135,49 13,9 32,23 48,29 17,6 30,11 44,15l1 0 165 88c4,1 18,1 26,20 14,9 32,18 41,22 2,1 2,0 4,1 10,3 19,8 28,14 5,-74 53,-74 250,-79 528,-46 1262,-1068 1506,-1510 22,-40 -5,84 -34,134l-1 3c134,165 -17,628 -358,1007l0 0zm-451 615l-8 -4c-1,2 -2,5 -2,7 3,-1 7,-2 10,-3zm-858 426c-61,-30 -80,-30 -147,-38 70,-3 89,-1 153,27 3,2 4,6 2,9 -2,3 -6,4 -9,2zm-255 811c-1,-13 9,-22 12,-32 60,-97 188,-219 263,-217 45,-3 49,6 68,44 2,4 4,8 5,12 1,39 0,77 -5,112l-3 -3c0,5 1,9 2,12 0,2 0,3 -1,5 -1,2 -4,4 -11,7 -3,-2 3,-4 -2,-10 -7,4 -6,10 -8,16 -2,6 -7,7 -12,12l2 12c-49,146 -66,153 -103,217 -3,6 -1,9 -7,14 -58,45 -91,95 -210,151 -3,6 -23,16 -28,18 -5,3 1,8 -2,17 -5,8 -39,36 -56,49 2,-94 -31,-179 -112,-274 -105,-123 -227,-171 -345,-162 2,-3 2,-1 4,-6 -5,-12 -29,0 -41,-2 -11,-8 -14,-17 -30,-11 -9,4 -14,0 -26,-3 -6,1 -13,2 -18,3 -11,13 -40,12 -37,28 19,5 22,-10 32,-3 -1,12 -20,10 -27,14 0,6 3,10 7,14 1,0 2,0 3,0 -5,3 -7,19 -13,32 -2,4 -6,7 -9,7 -3,0 -6,3 -6,6 0,1 1,3 1,4 -8,4 -18,3 -33,-6 -2,-2 -3,-5 -5,-7l-5 -6 -2 -4 -4 -6c3,-20 6,-29 23,-39 -17,-8 -29,18 -34,33 -2,-1 -4,-3 -5,-4 -7,-5 -10,-2 -20,0 -13,13 -14,21 -12,26 -1,6 4,37 6,42 3,6 5,13 6,20 0,3 0,6 0,9 -1,4 -2,7 -4,10 -2,7 -7,14 -16,18 -4,5 -36,0 -33,-16 -2,-2 -3,-10 -4,-12 -4,8 -4,16 0,24 -6,1 -6,6 -8,10 -2,2 -4,5 -6,8 -1,1 -3,1 -5,2 -7,-5 -6,-10 -14,-12 -5,1 -15,15 -16,20 -2,6 1,10 2,15 3,12 -5,16 -4,30l0 14c-1,6 -4,23 -8,26 -4,5 -17,3 -21,15 1,2 1,4 2,5 -1,3 -2,6 -3,9l-7 0c-14,-15 -3,-17 -7,-61 -17,-1 1,12 -15,11 -2,-10 -1,-9 4,-16 0,-6 0,-7 -5,-11 -6,8 -1,20 -13,19l0 -16 8 -5c0,-9 1,-9 -3,-16 -3,-5 -4,-27 -2,-32 3,-7 2,-9 2,-16 4,-6 3,-2 5,-10 2,-12 7,-20 6,-36 -7,0 -2,1 -9,3 0,0 0,-1 0,-1 0,0 0,-1 0,-1 -3,-11 -1,-5 -8,-12 -2,-2 -3,-4 -6,-7 -10,-2 -20,-1 -29,2 -9,3 -5,2 -13,0 -3,-1 -4,1 -8,3 -35,-13 -104,-62 -140,-83 -5,-3 -12,-6 -15,-9l6 -17 9 4c0,-10 -13,-11 -21,-11 -7,4 -3,9 -13,8 -22,-1 -97,-23 -107,-35l10 -7c-1,-3 -12,-5 -16,-5 -33,-6 -40,-10 -72,-17l-30 -4 -1 -7 -9 3c-1,-6 2,-7 3,-12 -9,1 -6,14 -25,5l4 -9c-7,0 -9,6 -16,2 -9,-4 -9,-3 -18,-6l-1 -11 -11 0 4 -12c-7,-7 -12,-1 -15,-10 -2,-7 1,-9 4,-15 -5,-4 -6,-1 -10,-10l5 -8c6,-2 6,-3 13,-3l-4 6c36,24 59,36 112,33 0,-13 -13,-3 -21,-24 -3,-8 3,0 -1,-4 -9,-4 -4,0 -13,0 -11,-1 -7,-5 -13,-9 -12,-7 -8,-4 -20,-3 -5,-5 0,-3 -4,-9 10,-7 3,1 8,-10l18 -3 0 5c-7,5 -17,-2 -16,12 6,-1 6,-3 11,-7 6,-3 25,3 28,4l2 -6c6,-1 5,1 9,-3 -3,-1 -25,-16 -26,-18 50,15 -15,-25 -53,-63 2,0 4,-1 7,-3 -2,-6 -11,-4 -18,-9 -6,-19 -2,-24 -24,-17 -26,-18 -64,-39 -123,-66 -19,-2 -54,-3 -68,-19 2,-4 7,-6 1,-15 -4,4 -1,8 -4,10 -2,-3 -3,-7 -3,-11 0,0 0,-1 0,-1l0 0c5,-19 58,-60 16,-62 -5,2 -7,6 -10,9 -12,12 -16,-3 -28,2 -4,6 2,4 3,9 -7,13 -9,7 -15,25 -2,5 -5,9 -6,13 -2,6 0,11 -1,17l-10 5 8 8c-3,8 -8,6 -5,14 2,4 -4,5 -7,10 -1,9 2,15 3,24 1,9 -2,14 -3,23 0,8 2,17 2,26 0,3 0,6 0,9 -5,-36 -10,-71 -10,-79 0,-10 17,-85 37,-147 2,-8 27,-73 32,-78l2 -2 1 -2c1,-6 3,-13 5,-22l18 -50c-4,-8 -3,-8 4,-16 1,-1 1,-1 2,-2l2 -5c0,-1 0,-2 2,-5 87,-241 49,-238 131,-334l2 -2 0 -2c9,-73 31,-105 40,-146 9,-40 20,-75 36,-123 12,-21 22,-40 31,-57 42,-79 61,-114 164,-171 32,-17 53,-42 88,-53 18,-6 35,-11 53,-17 7,-1 14,-4 21,-7 7,-4 13,-10 18,-18l22 -33c8,0 16,-7 23,-8 18,-2 39,-7 57,-6 11,0 15,9 22,8 7,-2 13,-4 19,-8 4,-2 9,-2 14,-2 5,0 11,1 16,-1 5,-1 10,-4 15,-6 5,-2 10,-5 15,-5 9,-1 17,-4 25,-7 8,-3 16,-6 25,-6l51 -2 1 -6c2,-10 5,-17 9,-23 3,-5 8,-7 13,-8l3 -1c0,8 0,16 0,24 0,14 -3,18 0,32 3,14 8,12 6,29 6,6 10,7 10,17 -15,0 -21,-28 -27,-37 -2,7 4,14 6,23 2,8 8,18 8,25 -13,-4 -30,-52 -44,-60 1,9 31,56 39,67 17,21 34,36 52,55 18,18 36,36 56,52 19,15 40,38 61,48 13,-2 3,-1 15,0 9,-5 9,-7 21,-5 6,9 0,3 9,9 5,4 5,9 8,11 3,2 3,1 6,3 3,3 2,3 4,5 5,4 8,-1 14,6l-2 8 11 7c6,-1 9,-3 15,0 9,5 22,18 28,25 -3,6 -5,2 -4,8 5,1 4,1 9,-3l8 3 5 -7c9,9 -1,5 13,11l0 7c16,8 5,6 23,5 6,5 0,7 8,7 2,-3 2,0 0,-5 13,-4 5,-8 0,-13 -7,-6 -12,-2 -21,-4l-1 -10c-7,2 -6,7 -12,2 1,-4 4,-6 6,-13l-6 -9c2,-7 2,-16 8,-21 7,-5 13,-1 20,-5 6,-4 8,-7 17,-11 11,-5 16,-4 25,-8 13,-5 6,-14 29,-25 4,-2 16,1 15,-4 -1,-4 -16,-5 -17,-5 1,-4 6,-9 6,-12 1,-4 -5,-1 -7,-4l9 -17 -11 4c-1,-14 14,-11 4,-31 -2,-3 5,-33 6,-37 -2,-5 -15,14 -6,-19 2,-7 6,-11 8,-18 7,-25 16,-28 20,-39l0 3 1 5c41,20 83,39 124,59l1 0c36,10 34,9 113,31l165 88 1 0c0,0 8,2 15,19l1 2 2 1c2,2 5,3 7,5l3 2c5,31 7,48 5,84 -2,32 -4,64 -6,96 -1,16 -1,33 -2,49 -1,17 0,34 -1,50 -1,16 -4,31 -5,47 -2,16 -1,32 -3,48 -4,33 -2,68 -3,102 -2,62 -16,122 -22,183 -7,61 20,40 -9,185 -11,53 -20,126 -25,181 -6,64 -7,128 -15,192 -4,30 -9,61 -12,91 -5,53 -11,72 -17,85 -14,11 -26,46 -33,62 -4,9 -8,14 -12,21l-42 96 4 8c-3,8 -41,62 -41,68 15,-3 73,-94 80,-121 4,-18 23,-85 35,-94 1,33 -1,1 -7,31 -2,10 -6,9 -5,17 1,17 -10,19 -10,34 6,-2 14,-13 18,-18 5,-8 10,-14 18,-20 12,-10 8,-13 15,-23 9,-13 12,-12 8,-26l9 -3c0,-11 4,-12 9,-21l11 -4c0,-10 0,-12 -9,-13l-3 14c-22,12 0,6 -16,11 -14,-8 4,-3 -9,-10 -8,13 6,8 -3,20 -11,-2 -3,-8 -13,-13 -4,7 -1,18 -13,20zm52 -195c-4,29 -4,29 -7,58 19,-24 21,-40 37,-55 -15,-9 -16,6 -30,-3zm305 -48c-98,-13 -51,-46 -170,0 -42,16 -45,13 -90,18 38,-8 50,-9 86,-24 120,-51 77,-16 174,-6 3,0 6,3 6,6 0,3 -3,6 -6,6zm-17 -58c-37,-2 -19,0 -55,-7 37,-4 18,-2 55,-5 3,0 6,3 6,6 0,3 -3,6 -6,6zm-11 -61c-12,-5 -12,-10 -3,-15 -5,-2 -6,-4 -4,-6 -28,1 -60,-1 -86,-1 37,-4 74,-9 109,-5 1,4 0,6 -2,7 14,3 8,5 0,8 0,0 0,0 0,0l-1 0c-2,1 -3,1 -5,2 11,3 19,12 -3,20 -3,1 -7,-1 -8,-4 -1,-2 0,-4 1,-5zm-5 -68c1,-1 2,-1 2,-2 -2,-2 -6,-5 -7,-8 -17,-2 -55,-4 -61,-5 10,-2 82,-18 74,3 10,6 8,14 -1,22 -3,2 -7,1 -9,-1 -2,-3 -1,-7 1,-9zm-57 -80c0,0 -1,0 -1,-1 0,0 2,0 4,0 14,-2 34,-3 34,-3 3,0 6,3 6,6l0 0c4,1 7,1 10,2l1 0c0,0 0,0 -1,0 9,2 12,5 5,8 -6,3 -15,4 -23,6 17,6 54,17 1,17 0,0 -66,2 -66,2 4,-1 59,-7 79,-10 -28,-12 -44,-3 -10,-18 -17,0 -38,1 -43,-1 -11,-5 -5,-8 5,-10zm39 -24c-90,12 -126,6 -219,12 91,-18 127,-8 218,-25 3,0 6,2 7,6 0,3 -2,6 -6,7zm17 481c5,1 5,1 6,6 -7,0 -6,0 -6,-6zm-172 -570c8,0 10,0 9,8l-9 -1 0 -7zm-4 -34c6,2 4,0 5,6l-7 0 1 -6zm23 -29c0,8 1,7 -6,6 0,-6 1,-6 6,-6zm116 -13c3,5 3,4 0,9l-4 0c-4,-6 -3,-7 4,-9zm-16 -127c6,2 9,7 0,8 -3,-4 -2,-4 0,-8zm16 -38c2,-3 -1,-7 8,-2 -4,5 -2,5 -8,2zm-9 -183c-6,-1 -5,-3 -8,-9 4,-1 5,-2 10,-1 1,6 2,5 -1,10zm-40 -39l0 6c-7,0 -7,1 -7,-7l7 0zm-8 -1c-6,-1 -8,-2 -6,-8 2,-1 1,-2 6,-1 2,6 2,4 -1,9zm-98 -204c1,-25 6,-101 -4,-136l38 20c30,9 55,36 75,72 26,45 43,104 54,161l0 0c7,33 11,66 13,97 -5,7 -1,24 -4,30 -5,-5 -3,-14 -4,-22 -1,-16 4,-10 6,-16l-8 -7 -4 9 -10 3c0,7 4,12 -3,16 -6,-6 0,-11 -7,-13 -4,6 -1,8 -3,15 -5,0 -9,-5 -11,-10l6 -9 -11 -1 -5 10c-18,-6 -3,-16 -4,-22l-11 -1 -4 -10c-14,-5 -11,9 -25,4l-3 -14c-4,-3 -34,-9 -26,5 7,0 6,-3 12,-4 12,6 9,20 -2,17l3 -10c-10,-3 -11,5 -21,-2 2,-5 4,-4 3,-9 -5,-1 -6,3 -12,4 -3,-4 -1,-4 -2,-8 -6,2 -8,9 -14,6 -6,-3 -1,-7 -8,-9l-4 10c-5,-4 -3,-4 -3,-9l-6 5c-3,-5 -2,-5 -1,-10l14 -1 -11 -6c-3,-16 0,-60 2,-78 3,-24 3,-52 4,-76zm197 677l-2 1c-7,13 -17,5 -17,-1 7,-1 4,2 12,0l0 -8c-10,0 -10,2 -17,-5l-3 8c-10,0 -10,-3 -16,-10 -5,-6 -3,-14 4,-17 6,5 2,7 8,14 12,-1 19,5 29,3l0 -2c1,7 2,13 3,18zm-4 -24c-6,-1 -2,3 -11,3 -9,-7 0,-4 -14,-7 -1,-5 -1,-8 -4,-13 -4,-6 -4,-4 -3,-11 10,-2 5,1 9,8 5,-3 2,-3 7,-2 0,5 -7,10 1,15 7,-4 0,-3 5,-11 10,6 -2,5 4,13 2,-2 3,-4 4,-6 1,4 2,8 2,11zm-5 -25c-7,-4 -4,1 -10,-7 -4,-5 -2,-7 -7,-9 -5,5 -3,14 -13,7l2 -12c11,-9 5,-10 4,-23l4 -6c-10,-7 -2,-3 -6,-11 -7,1 -3,4 -14,6 0,11 -2,9 -10,13 1,3 4,5 6,10 1,3 2,6 3,8 3,5 17,16 8,26 -7,-2 -9,-10 -12,-16 -1,1 0,6 0,8 0,6 -1,7 -4,11 -9,12 0,12 0,21 -6,5 -16,-12 -23,-6 -4,3 -12,21 -22,8l11 -7c-22,-24 -13,-37 -18,-45 -18,-26 -25,4 -43,-1 -6,-7 1,-12 -4,-13 -13,4 -26,21 -33,-7 -8,-31 -17,-9 -23,-9 -24,-21 -7,-15 -13,-27 -8,-17 -3,-9 -7,-20 -3,-10 -4,-5 2,-11 2,-2 -3,-13 -3,-18 0,-2 4,-23 5,-24 1,-3 11,-3 14,-3 8,1 8,4 13,8 1,-5 -1,-11 6,-13 6,2 3,5 4,9 1,2 7,2 9,2 7,2 8,5 14,7 7,2 10,1 17,5 5,8 -9,11 -6,16 8,-2 9,-8 16,-12 7,2 5,7 9,11 2,2 2,-4 5,-4 1,0 12,2 13,3 2,2 -1,9 -1,11 3,1 13,-6 24,1 8,5 -3,13 5,20 8,-2 6,-12 10,-13 4,7 1,15 4,21 3,5 8,1 10,5l-8 14c1,2 8,-1 12,-1 5,0 12,5 16,1 -1,-11 -18,-11 -9,-28l8 7c0,-26 1,-24 3,-26 13,42 24,80 31,112zm-34 -122c-2,1 -4,2 -6,1l3 -10 1 2 2 7zm8 -60c0,-1 0,-3 0,-4 0,-1 1,-3 2,-4 0,3 -1,6 -1,8zm-533 -1114c2,0 4,0 6,-1 2,-1 3,-2 4,-4 1,-1 1,-3 2,-5 0,-4 1,-7 1,-11 0,-8 1,-17 3,-25 2,-8 4,-16 7,-23 3,-8 9,-17 1,-8 -7,-8 -5,-20 -11,-30l-18 -1c0,8 1,7 6,13 1,10 0,5 3,14 3,8 3,21 -1,29 -3,8 -1,5 -3,13 -10,-1 -11,-16 -16,-26 -6,-2 -6,-2 -13,-2l-3 7c-15,-12 -1,-18 4,-26 1,-7 1,-18 1,-25 0,-10 -4,-7 -7,-17 6,-3 4,-2 7,-8l3 7c5,-1 8,-3 11,3 2,5 1,8 4,13 15,-9 20,-26 39,-22 -1,-5 -3,-9 -7,-12 -4,-4 -11,-5 -17,-6 -4,-1 -9,-1 -13,-3l-6 -2 0 -6c1,-14 2,-28 4,-42 1,-6 1,-13 2,-19 -74,-211 -76,-60 -93,-74l-5 6c-11,-16 -4,-6 -15,-11 -2,-1 -3,-3 -5,-4 -6,-3 -10,0 -17,-5l7 -5c-8,-9 -10,-13 -17,1l3 5c-6,0 -3,-1 -9,-4 -10,5 -4,3 -15,2 -12,-1 -6,2 -16,-4 -8,4 -11,5 -18,-1 -9,-9 -10,-1 -17,0 0,-5 0,-3 3,-8 2,1 5,0 7,-2 47,-54 72,-8 96,2 -33,-42 -66,-51 -104,-12 0,-1 0,-1 0,-2 -7,0 -6,3 -12,6l-6 -3c-4,5 -2,6 -7,8 -3,-10 -4,-32 -2,-52 2,-22 20,-37 55,-40 12,4 10,8 24,8 14,0 17,2 29,4 25,5 26,5 44,23 25,25 -12,29 6,39 6,-4 81,20 38,-57 -10,-18 -22,-36 -35,-52 -9,-11 -20,-21 -32,-29 -12,-9 -25,-16 -38,-24l-4 -2c-33,-18 -67,-37 -103,-43 -28,-4 -59,5 -87,14l0 0c-14,4 -28,9 -42,16 -13,6 -26,13 -37,22 -17,14 -33,29 -48,45 -13,15 -25,30 -35,47 -8,14 -14,29 -18,44 -1,4 -2,8 -3,12 2,0 4,2 5,4 7,19 -4,26 -4,31 5,11 -1,56 -10,78l0 1c0,9 0,19 0,28l18 5 4 11c17,-20 43,-25 63,-19 -1,3 -2,8 -3,15 5,-6 7,-10 9,-12 7,3 13,8 18,14 -9,12 -18,25 -14,30 5,-6 12,-13 19,-21 6,18 -1,9 17,16 0,6 -5,6 -2,13 6,-1 6,-4 10,-8 7,6 -10,15 -6,30 1,6 7,13 7,16 1,6 -4,9 -1,13 8,-1 11,-11 17,-13 4,-1 5,2 8,0 4,-2 2,-4 5,-6 6,11 -3,15 1,22 6,-1 5,-5 7,-10 8,-25 33,-40 58,-37 10,1 20,1 28,2 17,1 32,10 43,21 7,6 14,23 21,30l6 -10c35,29 10,24 29,54 5,14 2,12 0,27 3,3 8,10 11,11 5,-14 0,-20 4,-33 3,-12 3,-17 4,-29 2,-22 6,-43 -1,-65l-5 13c-2,-3 -1,-31 1,-34 -6,-40 68,-44 94,-23 6,7 1,10 14,13 11,3 8,0 16,-1 4,0 20,2 21,7 1,6 2,8 -2,12 -1,1 -9,6 -6,7 6,2 15,4 16,12 1,5 -15,-7 -19,-4 -4,3 -6,24 -9,30 -3,6 12,15 9,21 -10,23 -5,22 -5,40 0,8 -3,17 1,24 4,6 11,7 16,12 2,2 5,6 6,10 7,5 13,10 18,11zm-687 2084c-1,11 -17,85 -20,92 -6,-15 6,-70 8,-92 0,-3 3,-6 6,-6 3,0 6,3 6,6zm64 115c-4,11 7,6 -10,8l4 -10c17,-16 30,-31 41,-45 10,-3 24,-22 27,-28 2,-5 4,-9 4,-13 16,-20 33,-38 63,-56 5,3 10,3 20,-2 6,-3 11,-9 14,-14 1,-1 2,-3 3,-4 10,-5 21,-9 34,-14 64,-24 172,14 213,71 -148,62 -199,-31 -414,107zm142 -151c2,-1 4,-2 6,-3 0,0 0,0 1,0 -2,1 -4,2 -6,2zm-829 -499c6,-4 5,-4 8,2 -5,3 -4,3 -8,-2zm704 568c-1,-2 -5,-26 -5,-26l2 -4 5 27c7,-10 15,-14 27,-12 -10,0 -19,4 -27,12l-3 3zm-15 -44c1,1 0,3 1,4 5,-9 17,-14 31,-17 -13,-1 -25,5 -32,13zm-36 7c21,-11 21,-8 32,24 -5,3 -13,-10 -17,-17 -1,1 -2,2 -3,5 -1,3 0,2 -3,5 -3,-1 -5,-3 -8,-5l0 -3c-1,0 -2,-1 -2,-2 -2,-3 -1,-7 2,-9zm37 -81c18,-3 28,-2 29,19 -13,-12 -7,-14 -25,-7 -3,1 -7,-1 -8,-4 -1,-3 1,-7 4,-8zm214 -99c15,-3 113,4 103,29l-1 -1c-9,-18 -84,-19 -98,-15 -3,1 -7,-1 -8,-4 -1,-3 1,-7 4,-8zm-23 87c3,-1 5,-2 8,-3l0 0c-3,1 -6,2 -8,3zm-245 -15c48,10 25,29 77,1 35,-19 9,8 44,-29 6,-6 73,-16 90,-20 -27,13 -79,19 -84,25 -34,40 -13,13 -45,32 -53,31 -32,14 -81,3 -3,0 -6,-3 -6,-6 0,-3 3,-6 6,-6zm-131 -814l6 0c4,-10 -1,-22 0,-31 5,1 2,2 5,2 0,-5 1,-12 -1,-16 -8,1 -3,-1 -5,7 -4,11 -4,26 -4,39zm-120 232c17,48 7,56 13,70 10,-7 5,-27 4,-38 -4,-29 -8,-15 -10,-32 -5,-27 -11,-5 -26,-59 -2,2 -4,-2 -3,10l8 24c4,8 13,20 16,26zm45 -15c11,-18 32,-78 41,-101 7,-17 13,-34 20,-51 4,-10 21,-42 20,-49 -3,2 -29,54 -29,54 -7,-1 -2,-3 -7,1 4,6 2,0 6,6 -3,5 -1,1 -7,5l0 8c-12,7 -8,8 -15,15 -12,10 -6,4 -11,19l-7 3c-1,34 -3,1 -7,30 -1,10 -7,4 -6,14 3,-1 7,-4 9,-7 5,-5 4,-7 4,-14l6 -3c2,-14 3,-5 8,-13 3,-6 2,-7 8,-14 3,6 -4,19 -7,25 -8,15 -10,25 -17,36 -4,7 -2,6 -4,13 -7,22 -12,18 -5,23zm-283 273c48,32 84,64 131,93 -2,-8 -4,-15 -7,-23 -17,-48 -7,-25 -10,-41 -1,-5 -5,-14 -7,-21 -9,-36 -1,-80 14,-114 4,-10 12,-33 11,-44 -1,-7 -2,-6 -3,-11 -2,-10 -2,-30 -5,-35 -2,-2 -5,-4 -7,-8 -2,-4 -1,-5 -4,-9 -2,-3 -11,-13 -14,-14 -6,6 -22,44 -28,55 -22,40 -37,65 -62,102 -7,11 -29,41 -31,49 -1,-6 -28,-27 -53,-44 -14,-10 -28,-22 -33,-22 1,-8 -2,-23 -13,-23 -9,0 5,22 -7,25 0,0 -24,0 -27,-1 -9,-1 -17,-16 -20,-23 -3,-6 -3,-13 -3,-17l0 0c10,-86 17,-159 32,-225 32,37 73,91 104,100l-2 -3c-49,-43 -62,-67 -98,-109 2,-10 5,-19 8,-29 28,33 37,36 74,67 -29,-36 -44,-44 -71,-78 3,-10 7,-19 10,-29 19,20 37,40 57,58 -17,-24 -35,-46 -53,-68 4,-10 9,-19 13,-29 32,37 77,98 110,107l-2 -2c-50,-45 -63,-68 -102,-114 4,-8 8,-15 13,-23 27,31 36,35 73,66 -28,-34 -43,-43 -68,-74 13,-20 28,-40 46,-60 27,-6 133,28 173,73 -10,-44 -101,-111 -141,-112 1,-1 2,-2 2,-3 0,-41 0,-81 1,-119 46,35 99,75 140,83l-4 -2c-72,-41 -88,-71 -135,-111 1,-12 1,-23 2,-34 41,32 65,49 120,78 -44,-34 -76,-56 -119,-92 1,-8 2,-16 2,-24 32,22 64,44 98,64 -30,-28 -63,-53 -96,-77 8,-63 20,-119 40,-165l0 1 7 1c2,-5 2,1 0,-7l7 -1 -1 -8c-3,-1 -5,-1 -6,-1 6,-12 12,-23 19,-33l7 0 1 -7 -2 0c6,-8 11,-15 18,-21 2,-1 5,-1 9,-2 3,-1 38,-1 40,0 12,5 15,14 33,14 14,0 30,-4 44,-5 17,-1 21,5 34,12 12,6 33,9 37,21 5,15 -11,24 0,30 10,5 29,3 14,11 -14,7 -2,13 2,20 4,7 -3,16 13,15 16,-1 10,15 9,24 -2,12 12,16 16,30 3,13 1,26 4,36 1,2 5,5 7,9 12,21 6,24 10,1 1,-6 3,-5 4,-14l-4 -4c6,-8 6,-46 7,-55l-6 -4 8 -8c1,-15 2,-28 4,-43l4 -40c2,-52 5,-119 -8,-170 -7,-29 -25,-51 -22,-66l5 8c40,-66 30,366 29,377 -4,61 -9,136 -26,194 -8,28 -18,57 -25,86 -20,82 -50,165 -97,233 -11,15 -12,21 -19,37 -6,13 -17,23 -17,37 1,39 28,41 33,133 1,15 -6,28 -12,42 -10,26 -20,53 -30,79 -7,18 -45,119 -54,151 1,1 2,1 3,2 4,-10 8,-28 15,-30 8,4 13,29 10,46 45,33 147,116 193,149 -60,-33 -128,-56 -171,-102l-56 -41c-52,-30 -93,-82 -144,-114 -3,-2 -4,-5 -3,-8 2,-3 5,-4 8,-3zm-178 -619c-2,-3 -3,-8 0,-16 3,-7 5,-8 8,-8l-8 23zm41 512c2,1 8,3 10,5 0,6 1,5 -2,10 -5,-2 -9,-7 -8,-14zm267 -172c-2,-9 9,-56 15,-60 2,3 14,45 13,49 -2,2 -26,11 -29,11zm214 -469c-1,-7 -1,-8 7,-8 0,7 0,7 -7,8zm-7 -20c-3,-4 -4,1 5,-13 3,2 7,3 -2,11 -2,2 0,1 -3,2zm19 -12c10,-1 4,0 11,-5l1 7 -11 7c-6,5 -3,6 -10,5 0,-11 -1,0 10,-14zm-9 -3c0,-4 1,-3 4,-5 3,5 3,6 0,11 -2,-1 -4,2 -4,-5zm-30 -162c0,-7 0,-6 6,-6 0,6 0,6 -6,6zm-270 -19l0 6 -5 -1c-1,-7 -1,-6 6,-5zm191 -109c5,4 6,4 3,9 -2,-1 -3,1 -5,-4 -2,-6 1,-4 1,-5zm452 -254c-3,0 -6,3 -6,6 0,3 3,6 6,6 32,39 101,111 142,139 5,3 5,3 8,6 0,0 0,0 0,-1 9,8 13,3 9,-4 4,2 2,-4 -2,-9 0,0 0,0 0,0 -2,-2 -13,-16 -28,-34 27,21 51,40 56,43l44 24c-24,-15 -74,-51 -114,-84 -28,-32 -59,-65 -63,-52 0,1 1,4 5,7 0,1 0,1 0,2 -3,-2 -6,-4 -10,-7 0,2 1,5 4,9 -18,-19 -35,-37 -50,-52zm279 -640c-1,-3 -3,-7 -3,-10 0,-4 3,-7 5,-11l-13 12 12 9zm13 1009c-12,3 -12,-10 -20,-20 -5,-6 -12,-20 -17,-23 3,10 25,31 22,44 -7,2 -16,1 -23,1 -13,0 -17,5 -45,3 -6,-1 -15,-4 -20,-1 4,11 37,8 49,7 44,-4 44,-11 99,6l35 8c6,1 6,5 10,0l-61 -18c-5,-1 -19,-3 -23,-4 -2,-10 48,-71 57,-81 24,-28 41,-48 71,-71 43,-32 73,-65 101,-109 5,-9 19,-28 15,-36 -4,4 -11,23 -19,34 -32,43 -51,73 -102,109 -48,33 -70,65 -102,109 -5,7 -10,13 -15,21 -3,5 -10,19 -13,23zm-33 -690c7,4 7,3 8,-3 -7,-5 -7,-2 -8,3zm8 18c9,-1 10,-8 9,-14 -5,8 -5,3 -12,8l3 6zm39 466c-3,-9 -13,-6 -14,1 6,1 10,1 14,-1zm5 -280c3,-2 6,-2 9,-2 0,0 -1,1 -1,1l-3 1c-1,0 -2,0 -4,-1zm26 -16l-8 -4 -4 8 -13 0c-4,5 0,9 -10,9 -12,0 -3,0 -13,5 -10,5 -5,2 -11,10 -5,7 -6,3 -13,5l2 6c-40,19 -70,36 -47,35 1,0 8,-2 19,-6l2 5c11,1 9,-6 18,-4 -10,5 -17,10 -21,14 1,-2 2,-1 -1,-5 -7,4 -4,5 0,7 -1,1 -1,2 -1,2 0,0 -1,0 -1,0 -12,-4 0,-4 -14,1 -4,2 -2,-2 -6,3l22 3c5,0 3,-1 5,-4 0,0 -1,-1 -1,-1l3 -1c0,1 0,1 -1,2 1,-1 2,-2 4,-3 8,-2 16,-4 23,-6 1,1 2,2 2,3 -15,10 -23,18 -15,20 2,1 12,-4 24,-10 1,0 3,1 6,0 -3,3 -6,5 -8,8 -3,0 -5,1 -7,3 1,1 3,1 5,1 0,1 2,2 5,2 -2,1 -3,2 -4,3l-2 1 0 0c-2,1 -3,2 -4,3 2,1 4,1 6,0l0 1 4 -2c1,0 1,0 2,0 0,0 0,1 0,1 8,6 3,-4 9,7 -1,0 -2,1 -2,1 1,0 1,0 2,1 -6,4 -8,6 1,3 0,0 0,0 0,1 0,0 1,-1 1,-1 3,-1 6,-2 11,-4 2,2 1,2 8,1l-2 -3c4,-2 10,-4 15,-6 0,0 0,1 1,1 -11,7 -22,14 -29,19 -1,0 -2,1 -3,1 0,0 1,0 1,1 -9,7 -6,8 25,-6 4,-2 8,-4 13,-6l1 4c-6,3 -7,1 -6,5 -3,2 -6,3 -8,5l1 -7c-6,6 -13,5 -21,12 6,3 7,0 14,-2 -19,12 -38,29 -65,75l12 -17c14,-21 36,-40 57,-56 1,3 -1,1 3,3 5,-2 5,-1 6,-6 -1,-1 -2,-2 -2,-2 1,-1 2,-2 4,-2 6,1 12,-3 16,-7 7,-5 8,-5 14,-9 -1,-1 -2,-2 -3,-2 17,-11 31,-18 34,-22 5,2 9,1 11,1 0,-3 0,-7 -1,-10l-10 7c0,0 0,-1 0,-1 -1,0 -2,1 -2,1 0,0 0,0 0,0l-1 1c-8,4 -25,11 -41,19 0,0 0,-1 0,-1 -5,0 -8,3 -11,6 -14,7 -27,13 -35,15 15,-12 59,-31 62,-36l-1 -3c-1,0 -6,2 -13,4 -2,0 -2,-1 -2,1 -5,2 -10,4 -16,7 -1,0 -2,0 -2,1l-9 4c7,-4 13,-8 18,-11l1 0 0 -1c5,-3 8,-6 11,-8l1 0c0,0 0,0 0,0 8,-6 9,-8 0,-6 7,-3 12,-6 13,-8 4,-3 4,-5 2,-5 0,0 0,-1 0,-1 -8,-4 -5,1 -12,3 -7,2 -1,-3 -12,4 0,-7 -3,-3 4,-8 9,-7 16,-1 19,-10 -9,1 -14,3 -19,7 -1,-1 -2,-1 -3,-2l0 0c6,-7 2,-8 -7,-6 12,-6 22,-11 27,-16l1 0c0,0 0,0 -1,0 2,-2 3,-4 4,-6 -1,-1 -4,-1 -7,-1 0,0 0,-1 1,-1 0,0 -1,0 -2,1 -1,0 -2,0 -3,0l0 0c12,-5 23,-11 30,-16l1 0c6,-2 3,0 4,-3 1,-1 2,-2 3,-3 0,0 1,-1 1,-1 3,0 2,0 6,-2l-2 -3c0,-1 0,-1 -1,-2l0 0 0 0c-6,-2 -31,5 -60,14 3,-1 6,-2 8,-4l10 -3 -1 -1c5,-2 9,-4 13,-6 1,1 2,1 5,2l0 -5c2,-1 3,-2 5,-2 2,1 4,2 10,-3 8,-7 9,-1 16,-5 -2,-2 -5,-2 -7,-3 2,-2 4,-4 4,-5 -2,-2 -5,-3 -10,-2 0,0 1,-1 1,-1 0,0 -1,1 -3,1 0,0 -1,-1 -1,-1 -2,1 -3,2 -3,2 -1,0 -3,1 -4,1 10,-6 18,-12 21,-14 7,-8 1,-8 -9,-6 0,0 0,-1 1,-1 0,0 -1,1 -3,2 -1,0 -1,0 -2,0l0 0 0 0c-6,2 -13,4 -19,6 15,-12 30,-22 18,-23 0,-1 0,-1 0,-2 2,-2 5,-3 7,-4 3,2 3,2 7,-1 -1,-1 -2,-2 -2,-3 2,-1 4,-2 5,-3l1 1c4,3 3,2 4,6 -9,5 -3,-2 -8,8 -4,0 -4,-1 -7,0 4,10 0,-3 10,9 7,-2 3,-3 10,-2 1,-12 6,-45 0,-54 -1,6 -1,12 -2,18 0,3 -1,5 -1,7 -1,0 -2,0 -3,0 1,-2 3,-5 3,-10 -5,1 -6,3 -8,7 -1,2 -2,3 -3,5 -5,1 -12,3 -18,4l-2 -1c4,-2 7,-5 10,-7 7,1 8,-1 9,-8l0 0c19,-20 -50,2 -89,16 30,-19 80,-46 94,-53 3,-2 4,-5 2,-9 -2,-3 -5,-4 -9,-2 0,0 -160,80 -115,86 3,0 6,0 10,-1l12 -3c15,-5 35,-13 53,-20 -14,10 -24,21 -7,21 4,0 11,-2 18,-4 -3,2 -7,5 -9,7l-1 0c0,0 1,0 1,0 -7,6 -10,11 -1,11 3,0 6,-1 9,-2 -20,18 -38,30 -9,22 -6,4 -11,7 -16,11zm-28 88c1,0 2,1 3,1l0 0c-4,1 -7,3 -11,4l-1 0c3,-2 6,-3 9,-5zm9 -1l0 -1c-1,-1 -2,-2 -3,-2 2,-1 4,-2 6,-4 1,0 2,0 2,0l-1 -1c5,-4 10,-7 13,-10l1 4c-9,6 -2,2 -7,9l0 0c-4,1 -7,3 -11,4zm-23 -1c0,0 0,-1 0,-1l5 -3c-2,1 -3,2 -5,3zm20 -42l-1 -2 11 -4 0 2 -10 4zm18 -8c0,0 1,-1 1,-2l11 -4c-4,2 -8,4 -13,6zm-15 66l-3 3 -1 -1 5 -2zm-22 8c2,0 3,-1 4,-1 2,-1 4,-1 6,-2 1,0 2,1 3,1l-6 2c0,7 1,4 -1,7l-1 0c-1,-1 -6,-4 -10,-5 1,0 3,-1 5,-1zm25 -5c1,-1 2,-3 4,-6l5 0c-3,2 -6,4 -9,5zm-96 -4c5,3 1,2 5,0 -2,-1 1,-4 -5,0zm112 22c0,-2 1,-3 1,-4 13,-6 25,-12 37,-19 -8,6 -16,11 -23,16 -1,0 -3,0 -6,0 -2,3 -3,5 -4,6l-2 1c-1,0 -2,0 -5,0zm-78 -1c2,2 -1,5 6,2 -2,-4 -1,-5 -6,-2zm43 37c5,3 4,2 10,0 8,-3 4,0 7,-5 -7,-4 -11,0 -17,5zm-54 -3l0 5 5 0 0 -5 -5 0zm8 12c5,2 6,1 8,-3 -6,-3 -7,-3 -8,3zm58 8c4,4 2,3 7,0 -4,-6 -4,-4 -7,0zm-11 13c-6,1 -3,0 -3,5 5,-1 5,1 3,-5zm43 0c-5,3 -2,-1 -3,5 3,0 2,2 4,-1 3,-5 -1,-3 -1,-3zm-69 21c-6,-3 -5,-2 -8,1 4,3 4,2 8,-1zm128 -276c0,1 -1,1 -1,1 0,0 1,-1 1,-1zm-5 32c3,5 2,4 7,2 -2,-5 -1,-5 -7,-2zm6 5c-5,1 -4,0 -5,4 6,0 4,3 5,-4zm-10 17c7,0 3,2 7,-3l-3 -3c-4,1 -4,0 -4,6zm-245 -274l24 1c0,1 1,1 2,1l25 1c1,0 2,-1 2,-2l0 -7c0,-1 -1,-2 -2,-2l-24 -1c0,-1 -1,-1 -2,-1l-25 -1c-1,0 -2,1 -2,2l0 7c0,1 1,2 2,2zm-100 11c0,12 1,1 3,10 1,5 0,6 3,12 -5,2 -6,1 -6,9 0,6 -1,11 -1,16 5,-1 7,-4 12,-9l0 -11c6,-2 3,1 9,-3 -4,-9 -12,-8 -6,-19 4,-7 3,-5 -1,-10 -4,-5 -2,-5 -8,-6 0,14 7,9 3,16 -9,-4 3,-2 -6,-5zm36 246c3,-2 105,13 103,11 -2,-3 -106,-23 -109,-21 -8,5 -39,-38 -50,-49 0,1 29,74 56,60zm-114 -118c1,6 -2,4 5,5 -1,-6 0,-3 -5,-5zm46 211c1,5 2,7 7,8 0,-8 -2,-2 -7,-8zm-33 2c3,4 6,5 11,5 -2,-6 -5,-8 -11,-5zm85 -37c5,6 3,0 10,7 6,6 20,18 28,18 -3,-11 -16,-18 -25,-23 -12,-7 -11,-2 -12,-1zm-82 -2c3,5 17,16 23,14 -4,-6 -16,-13 -23,-14zm-10 -3c4,3 -1,4 6,0 -6,-3 -1,-3 -6,0zm11 -3c0,0 1,1 1,1 17,8 23,-3 8,-3 -8,0 -7,1 -9,3zm-17 -3c-5,3 -3,4 2,4l-2 -4zm9 -11c8,11 3,9 12,9 0,-6 -5,-8 -12,-9zm-13 -1c6,4 1,3 6,0 -5,-4 0,-5 -6,0zm52 0c-9,-15 -14,9 0,0zm-5 -8c4,2 -1,2 4,2 7,1 2,0 3,-2 -4,-6 -4,-6 -8,0zm-47 -6c0,7 -1,4 5,4 -1,-6 1,-5 -5,-4zm-5 -86c0,11 1,7 4,15l-6 6c5,6 4,8 11,8 1,-11 -3,-2 -6,-9 9,-6 13,8 9,14 3,2 3,1 5,2 6,4 15,16 24,15 1,-9 -8,-9 -5,-15 6,2 -1,6 10,6 1,-7 -2,-9 -8,-13 -10,-8 -6,2 -13,-8 -5,1 -6,3 -11,0 2,-1 4,0 8,-3 -5,-5 -6,-6 -11,-9 -8,-5 -2,-8 -11,-8zm10 63c3,4 3,4 8,5 0,-7 -3,-7 -8,-5zm129 -210c28,49 104,42 143,12 5,-16 14,-17 13,-31 -10,0 2,2 -22,6 -15,3 -19,1 -44,10 -28,11 -45,-9 -61,-15 -10,-4 -14,0 -24,-3 -9,-3 -12,-8 -20,-7 -1,8 1,6 5,12 6,8 2,7 9,16zm-182 -145l-4 0c-14,1 -23,-2 -30,-5 -6,-2 -12,-7 -18,-3 -12,8 -16,23 -12,41 4,18 18,42 12,70 0,3 0,6 0,10 0,5 0,11 2,14 2,2 7,4 12,5 2,1 5,1 7,2 1,0 2,1 3,1 0,-2 2,-5 5,-6 6,-4 19,0 20,-5 1,-4 -12,-10 -9,-14 4,-4 12,-12 18,-11 0,0 0,2 0,7 5,-12 7,-39 -7,-104zm475 464c0,-3 0,-5 0,-8 -11,11 -25,6 -28,15 7,4 21,-7 29,-7zm-49 1768c-6,22 -28,34 -48,42 -23,-12 -48,-33 -73,-47 -24,-13 -49,-21 -74,-31 54,-14 154,6 195,36zm130 90l-97 31 -55 -56c9,-11 20,-17 29,-29 8,-11 11,-21 17,-28 31,13 90,55 107,82zm-137 46c-1,1 -299,188 -362,247 -107,101 -163,273 -184,2 -13,-162 53,-227 213,-262 60,-13 115,-6 174,-15 50,-8 144,-55 159,27zm231 130c-48,-57 -57,-63 -129,-54l-40 -63 92 -39c35,31 72,112 77,157zm-203 -95c79,63 -8,88 -48,164 -45,85 -48,198 -149,323 -59,74 -79,90 -161,49 -210,-106 -163,-158 -21,-283 53,-47 327,-256 379,-254zm-245 571c104,-113 133,-104 192,-268 26,-72 88,-313 144,-122 28,95 31,219 -26,305 -42,62 -272,126 -310,85zm359 -131c25,-44 31,-124 28,-175 -6,-85 -29,-116 -49,-189 44,-18 78,19 99,56 30,51 23,58 18,113 -6,62 -49,153 -93,199l-7 8 4 -11zm-721 -421c0,1 0,3 0,4 6,-9 13,-11 16,-9 1,6 -1,12 0,18 0,0 2,-4 1,-6 0,-2 0,-16 0,-16 -8,0 -15,2 -18,8zm-135 92c-4,13 -7,25 -9,28 -10,-1 1,-3 -9,-3 7,-20 13,-33 18,-24zm-38 26c-3,7 -4,15 -5,23 -1,4 -2,9 -3,13 -3,8 -7,17 -9,25l-7 0c9,-29 18,-59 27,-76 -1,4 -1,9 -2,15zm-592 -808c2,-2 4,-4 7,-6 -3,-1 -3,-5 -10,-4l-3 4c2,5 4,5 7,6zm10 -9c35,-30 -1,-12 -4,-5l4 5zm647 707c1,-5 3,-8 10,-9l-1 8 -9 1zm-9 2c0,-7 2,-14 6,-18 4,6 4,19 -6,18zm-18 -8c-3,-6 4,-20 8,-25 0,5 -2,10 -3,15 -1,5 -1,9 -5,10zm9 5c-3,-5 -1,-4 0,-10 1,-8 7,-22 13,-25 4,8 -1,2 -5,17 -3,11 -4,16 -8,18zm79 -26c-2,-8 -2,-16 8,-12 2,7 -1,12 -8,12zm-20 -5c0,-4 0,-8 4,-11 4,-3 4,-2 9,0 1,9 -4,12 -13,11zm-17 -4c-2,-7 -2,-5 2,-11 3,-5 1,-5 8,-5 1,8 0,17 -10,15zm-36 -10c-5,-7 -2,-10 3,-13 3,5 1,9 -3,13zm-46 -25c7,-3 10,1 16,4 5,2 13,1 19,2 0,6 -1,12 -5,17 -6,0 -7,-2 -13,-5 -4,-2 -10,-3 -14,-4 -3,4 -5,6 -6,11 11,1 2,-5 14,-4 -2,8 -3,1 -3,9 9,0 3,1 7,-6 7,2 4,6 11,2 1,7 -6,28 -11,34 -5,-1 -12,-4 -17,-5 -8,-2 -9,1 -16,-5 -2,-14 8,-27 16,-37l1 -12zm23 -16c7,0 6,-1 6,6 -6,-1 -6,0 -6,-6zm-70 -12c-1,9 -3,10 -12,6 -7,-3 -11,-2 -15,-7 7,-5 10,-11 27,1zm107 -1c6,-3 3,-4 6,-10 2,-5 3,-5 6,-9 -6,-9 -15,-28 5,-22 1,3 1,5 2,8 1,2 1,2 3,6 -2,7 -4,4 -3,13 10,6 18,6 23,8 3,9 -7,13 10,13l0 8c-6,0 -1,0 -7,-3 -12,21 -4,6 -14,14 -3,3 0,3 -6,4 -3,-5 -2,-6 -2,-13 -3,-2 -7,-4 -11,-5 -1,4 2,18 4,22l11 4c-1,6 -14,22 -19,25 -8,-13 4,-7 -1,-16 -9,4 -1,9 -13,8 -2,-11 3,-13 12,-15 6,-17 3,-13 -2,-32 -7,-2 -3,-1 -10,0 -1,-6 -2,-17 1,-22 6,4 2,8 6,14zm-427 -343c0,-5 1,-5 6,-6 -1,6 0,5 -6,6z"/>
   <path class="fil1" d="M3915 2512c127,7 250,-6 368,-35 73,-99 50,-138 -47,-135 -111,60 -223,108 -335,141 3,8 7,18 14,29zm392 -41c93,-24 183,-59 269,-101 83,-141 22,-174 -148,-145 -51,35 -103,67 -155,97 54,-5 85,1 97,18 36,-10 93,-32 110,-41 -31,22 -63,41 -105,58 0,26 -23,65 -67,115zm300 -118c73,-38 143,-83 210,-133 84,-180 17,-223 -160,-170 -56,47 -114,92 -172,134 106,-28 171,-30 196,-8 33,-18 75,-44 88,-55 -23,25 -47,46 -78,68 13,31 -16,87 -84,164zm269 -179c89,-73 172,-155 248,-244 39,-202 -35,-230 -192,-136 -73,76 -149,148 -228,217 119,-48 193,-61 226,-42 27,-25 61,-60 71,-74 -16,29 -34,56 -59,84 23,30 -1,96 -66,195zm285 -290c75,-94 145,-200 201,-311 8,-158 -62,-161 -189,-56 -55,70 -114,140 -176,207 80,-55 132,-72 161,-55 28,-25 64,-63 75,-77 -17,31 -36,58 -63,89 23,30 19,99 -9,203zm239 -394c17,-41 33,-82 45,-123 23,-75 51,-201 23,-291 -68,122 -151,249 -245,374 68,-62 116,-91 146,-90 20,-33 45,-83 50,-100 -7,35 -17,67 -34,105 21,14 26,56 15,124z"/>
   <path class="fil1" d="M4075 2613c175,21 349,5 516,-40 37,-40 18,-64 -43,-77 -25,11 -50,21 -76,31 -129,48 -262,77 -397,87zm541 -47c66,-19 131,-43 195,-71 93,-118 70,-115 -81,-93 -46,27 -93,53 -142,76 30,2 51,7 62,15 37,-10 90,-29 107,-37 -29,20 -58,36 -96,52 3,15 -13,35 -45,59zm254 -98c55,-27 109,-56 161,-88 89,-126 56,-134 -102,-116 -45,36 -93,71 -141,103 65,-10 105,-12 124,-4 36,-13 85,-37 101,-46 -26,22 -53,40 -87,59 6,17 -15,48 -55,94zm196 -111c56,-36 110,-76 162,-118 23,-18 45,-37 67,-57 73,-151 21,-193 -122,-153 -6,7 -13,14 -19,22 -58,64 -121,125 -187,181 83,-17 132,-20 153,-10 32,-20 74,-50 87,-61 -22,26 -45,49 -75,73 8,21 -17,62 -66,123zm288 -228c70,-67 136,-141 193,-219 35,-151 -18,-176 -134,-112 -51,45 -103,89 -156,130 -17,22 -35,44 -53,65 78,-24 129,-25 155,-5 31,-16 93,-59 109,-74 -27,32 -55,59 -96,89 15,26 8,69 -19,126zm216 -251c24,-34 45,-69 65,-105 38,-68 91,-187 82,-281 -73,84 -151,165 -234,242 40,-19 67,-18 81,3 30,-23 76,-66 88,-81 -22,34 -45,64 -80,98 8,27 7,68 -2,123z"/>
   <path class="fil1" d="M5337 2284c-14,12 -28,24 -43,35 96,-35 154,-42 180,-25 31,-16 70,-37 94,-46 -25,23 -50,43 -81,62 11,31 -14,90 -71,173 86,-56 169,-119 241,-189 61,-154 -2,-172 -151,-100 0,0 0,-1 1,-1 -56,32 -113,62 -170,90zm352 -20c17,-18 34,-36 50,-55 51,-59 127,-165 138,-258 -82,63 -169,122 -258,177 60,-26 96,-31 112,-16 24,-21 47,-44 56,-54 -14,23 -30,44 -49,66 7,25 -10,72 -49,140zm-422 78c-8,6 -15,12 -23,18 -65,49 -133,94 -202,135 90,-11 145,-7 167,9 31,-18 80,-51 108,-63 -28,30 -57,56 -96,82 3,25 -29,64 -92,116 40,-17 79,-36 118,-55 45,-23 89,-48 134,-75 98,-163 46,-205 -113,-166zm-251 167c-59,33 -119,63 -181,89 70,0 113,7 132,21 32,-9 71,-21 94,-24 -26,16 -52,30 -83,42 2,21 -26,49 -81,84 65,-18 128,-40 190,-65 99,-108 62,-150 -71,-147zm-212 102c-59,24 -120,44 -181,61 38,4 62,12 73,21 24,-5 61,-14 81,-15 -23,15 -45,27 -73,35 -3,16 -24,35 -59,57 77,-9 154,-24 229,-44 82,-75 47,-105 -70,-116zm-202 67c-184,48 -375,62 -566,35 162,55 334,77 510,67 26,-1 53,-4 79,-6 70,-53 54,-82 -23,-96z"/>
   <path class="fil1" d="M5477 2567c-16,10 -32,21 -48,31 52,-8 83,-2 95,16 25,-10 89,-48 113,-57 -21,22 -72,51 -108,70 5,22 -8,56 -34,100 44,-26 85,-54 124,-84 56,-43 142,-122 171,-203 -102,49 -207,91 -314,127zm-88 54c-50,29 -101,56 -154,81 -21,10 -42,20 -64,29 70,-7 109,3 120,26 23,-7 64,-25 86,-29 -23,17 -50,30 -83,42 0,18 -11,41 -34,68 71,-27 141,-59 207,-96 61,-93 27,-128 -79,-121zm-261 128c-66,27 -134,50 -203,69 60,13 94,24 107,36 23,-5 68,-18 91,-20 -26,15 -51,28 -85,37 -4,14 -28,30 -66,51 43,-9 86,-19 128,-31 42,-12 84,-25 126,-40 67,-85 23,-114 -97,-102zm-234 78c-49,13 -99,24 -150,33 41,11 67,21 79,31 24,-3 58,-8 77,-8 -21,10 -42,17 -67,23 0,13 -19,27 -55,45 54,-5 107,-12 160,-22 89,-54 65,-67 -45,-101zm-201 41c-58,8 -116,14 -175,16 26,7 43,14 50,22 24,2 65,3 86,9 -27,9 -53,14 -85,13 -6,8 -18,17 -36,25 62,4 124,5 187,1 94,-51 79,-57 -26,-86zm-221 17c-8,0 -16,0 -25,0 -147,-2 -291,-25 -428,-69 155,79 324,123 497,137 32,-26 12,-47 -44,-67z"/>
   <path class="fil1" d="M4484 3048c-201,-18 -359,-69 -535,-168 164,128 324,182 530,220 50,-9 49,-27 6,-52z"/>
   <path class="fil1" d="M4073 3285c-75,-43 -146,-92 -211,-150 4,14 7,27 11,40 56,54 119,102 185,143 11,-6 16,-17 15,-33z"/>
   <path class="fil1" d="M4188 3344c-32,-14 -63,-30 -94,-46 1,7 1,13 -1,19 19,9 37,18 46,24 -13,-3 -31,-10 -50,-18 -3,4 -7,7 -11,9 26,15 52,29 79,43 4,2 8,4 13,6 14,-8 21,-20 18,-36z"/>
   <path class="fil1" d="M4320 3395c-35,-12 -70,-25 -104,-39 0,5 0,10 -3,15 24,11 49,24 61,31 -17,-4 -41,-14 -66,-24 -4,4 -10,8 -18,12 37,17 76,32 115,44 13,-9 18,-21 14,-39z"/>
   <path class="fil1" d="M4596 3466c-9,-3 -17,-6 -26,-10 -60,-9 -120,-23 -178,-39 -15,-4 -29,-9 -44,-13 2,6 2,12 1,18 24,8 88,24 109,33 -27,-1 -78,-14 -114,-23 -3,4 -7,7 -13,11 52,15 104,26 155,30 28,2 72,3 110,-5z"/>
   <path class="fil1" d="M5251 2953c-45,17 -91,33 -137,46 39,7 64,18 74,32 25,-4 81,-21 102,-23 -20,14 -64,27 -97,36 3,16 -8,35 -32,57 48,-12 97,-27 144,-46 29,-32 27,-50 16,-66 -14,-20 -43,-33 -71,-36zm-200 63c-55,14 -112,25 -168,34 51,11 79,22 87,34 28,-4 73,-14 92,-14 -20,11 -59,21 -91,28 -6,12 -29,27 -65,45 62,-5 124,-14 184,-25 4,-1 9,-2 13,-3 31,-27 41,-48 32,-64 -9,-16 -37,-27 -83,-35zm-203 39c-42,6 -84,10 -125,11 28,13 43,24 47,33 28,0 65,-2 81,1 -19,7 -53,11 -83,12 -8,11 -32,21 -69,33 55,4 112,4 168,0 37,-23 53,-39 49,-53 -4,-14 -27,-25 -66,-38zm-179 12c-42,-1 -83,-4 -123,-9 14,11 23,21 27,29 24,3 50,6 63,10 -15,3 -37,3 -60,2 -2,9 -13,15 -32,18 21,6 42,11 64,16 15,3 31,5 46,8 73,-34 73,-42 16,-73zm669 -25c46,-20 90,-42 130,-68 18,-12 41,-28 63,-47 22,-19 44,-41 58,-64 -51,17 -102,32 -154,46 -52,13 -104,25 -157,35 44,2 72,8 86,19 24,-6 50,-13 63,-14 -12,8 -33,16 -54,23 8,16 -5,39 -36,70z"/>
   <path class="fil1" d="M4786 3252c-48,1 -95,-1 -143,-4 35,21 54,40 57,58 29,3 85,3 106,8 -24,7 -70,8 -106,7 -4,15 -21,28 -49,40 49,5 100,8 150,7 39,-20 43,-37 39,-57 -4,-19 -16,-39 -53,-58zm-207 -11c-56,-7 -112,-17 -167,-30 45,31 66,52 67,66 30,7 75,16 93,24 -24,3 -65,-4 -100,-11 -11,8 -36,12 -74,15 58,19 118,33 178,43 4,1 9,1 13,2 77,-30 68,-63 -11,-110zm-200 -38c-40,-11 -79,-23 -118,-38 22,24 32,40 30,50 26,11 59,24 72,33 -20,-1 -52,-11 -82,-22 -12,5 -36,4 -71,1 49,26 99,48 151,66 85,-14 78,-36 17,-90zm-167 -57c-66,-13 -271,-143 -317,-192 14,22 117,144 162,173 41,26 97,81 144,77 48,-4 45,-16 10,-58zm623 220c49,-2 98,-8 145,-19 42,-9 108,-29 152,-62 -106,-3 -212,-14 -316,-32 43,19 67,35 75,51 30,0 79,-3 98,0 -22,9 -62,13 -96,15 -2,16 -22,32 -58,47z"/>
   <path class="fil2" d="M3625 4362c0,-9 101,-83 118,-93 4,-3 36,-24 45,-14 10,-8 21,-16 33,-22 22,-12 34,3 14,31 -12,17 -29,35 -46,54 38,-32 78,-60 89,-45 15,21 -88,135 -102,153 -6,7 -12,15 -19,23 44,-44 101,-106 125,-130 3,-3 31,-38 38,-21 2,6 -26,44 -57,83 18,-16 30,-23 30,-12 0,4 -12,26 -26,52 41,-46 99,-104 109,-86 1,2 0,7 -4,14 19,-18 32,-28 31,-17 0,8 -93,148 -105,171 -13,23 -20,38 -24,64 5,-70 111,-200 122,-232 -7,4 -21,18 -38,35 -30,45 -90,117 -108,132l0 0 0 0c-3,2 -4,3 -5,3 -9,-4 9,-22 9,-22 2,-3 45,-56 84,-99 14,-19 25,-35 27,-42 0,0 -1,1 -2,1 -35,19 -96,86 -132,136 -10,16 -18,28 -22,33l0 0 0 0c-1,1 -2,2 -2,2l-7 -1c-1,-2 -1,-5 0,-8 0,0 0,0 -1,1l1 -1c3,-12 17,-28 22,-36 0,0 1,-1 1,-2 16,-26 34,-57 47,-81 -28,24 -65,68 -83,89 -1,1 -32,45 -35,24 0,-1 1,-3 3,-6 0,0 0,0 0,0 0,0 0,0 1,-1 15,-24 79,-101 86,-111 5,-6 11,-15 18,-24 -43,44 -86,93 -129,134 -3,3 -25,29 -32,13 -8,-18 145,-176 162,-220 -17,8 -51,35 -61,43 -44,36 -61,55 -94,92 -11,16 -20,29 -27,30 -9,9 -20,15 -24,5 -3,-6 9,-23 23,-41 2,-4 4,-8 5,-9 10,-19 19,-38 30,-56 -5,5 -9,9 -14,14 -3,4 -5,7 -7,9 -20,27 -15,27 -43,47 -3,-1 -3,-1 -5,-3 -8,-10 13,-38 41,-68 8,-11 17,-22 26,-33 -28,22 -53,46 -80,66 -6,2 -12,-1 -14,-7 -2,-6 1,-12 7,-14zm151 -71c-3,8 -7,15 -8,17 -1,2 -3,7 -6,14 21,-24 44,-50 57,-67 -14,9 -31,25 -42,36z"/>
   <path class="fil3" d="M3902 4430c12,-15 134,-194 156,-137 1,3 1,10 0,19 1,-1 3,-1 4,-1 22,3 2,60 -1,73 -4,17 -16,66 -17,90 25,-27 76,-130 93,-94 3,6 -1,25 -6,48 27,-46 56,-90 68,-89 25,2 -11,74 -15,83 -4,9 -8,18 -12,28 10,-16 85,-132 100,-109 2,2 -3,19 -11,41 19,-36 45,-78 55,-67 2,-2 3,-3 4,-3 4,0 6,4 6,12 5,-11 9,-22 11,-26l0 -1 0 0 0 0c0,-1 1,-1 1,-1l5 3c-6,18 -15,45 -24,74 -7,33 -18,68 -20,74 0,1 -2,7 -4,16 -5,26 -7,49 -5,65 4,24 55,1 64,-2 -11,5 -62,30 -67,2 -2,-9 -2,-22 0,-36 -8,25 -17,49 -23,38 -8,-15 35,-139 42,-158 1,-1 2,-4 4,-9 2,-8 3,-15 4,-22 -11,39 -43,111 -48,128 -4,11 -26,103 -37,106 -28,6 24,-140 61,-218 -23,38 -50,95 -61,119 -4,10 -22,65 -31,66 -20,3 3,-44 5,-48 6,-18 27,-80 41,-119 -39,44 -68,94 -98,146 -2,4 -17,42 -29,27 -8,-10 48,-121 66,-176 -29,41 -79,135 -88,161l-1 0c-2,3 -3,5 -3,6 -6,3 -14,-1 -13,-10 0,-1 1,-4 3,-8 9,-27 31,-91 37,-121 -26,31 -59,102 -82,97 -18,-4 -11,-48 -2,-92 -15,42 -33,74 -46,53 -9,-15 19,-81 44,-119 4,-16 6,-29 6,-36 -27,14 -104,120 -122,142 -4,4 -11,4 -15,0 -4,-4 -4,-11 0,-15zm396 -9c-10,29 -18,57 -22,82 7,-21 15,-51 22,-82z"/>
   <path class="fil4" d="M4377 4369c-44,70 -96,159 -103,245 31,-43 86,-160 130,-238 6,-21 11,-42 17,-61 3,-10 14,-86 32,-64 2,3 1,26 -3,58 4,-4 7,-6 10,-6 5,0 8,2 10,6 5,-9 9,-15 13,-14 19,1 4,60 2,67 -3,18 -14,71 -23,121 12,-23 26,-48 36,-67 1,-2 2,-4 2,-5 5,-10 26,-66 39,-87 0,-1 1,-2 1,-3 0,1 0,1 0,2 2,-4 4,-6 6,-7l3 2c16,-34 34,-70 41,-82l0 0 0 0c2,-3 3,-4 3,-5 23,-11 -6,43 -7,44 -2,4 -4,9 -6,13 12,-21 24,-38 29,-35 5,3 -3,33 -17,69 -1,19 -9,56 -11,85 -1,12 -1,21 -2,32 -1,-15 5,-71 8,-103 -21,57 -50,124 -56,138 0,0 -48,119 -58,93 -9,-23 40,-134 66,-185 -12,21 -23,43 -35,64l-5 10c-16,43 -30,86 -48,126 -10,24 -24,20 -22,-6 1,-7 2,-15 3,-24 -1,0 -2,-1 -2,-2 -1,-2 1,-8 6,-19 10,-55 26,-133 34,-183 -20,63 -39,163 -49,211 -1,7 -5,48 -20,39 -5,-3 -5,-18 -4,-36 -12,28 -24,51 -33,50 -20,-2 -5,-56 -3,-67 5,-25 11,-52 18,-79 -30,59 -68,132 -96,169 -5,7 -28,30 -32,7 -13,-79 64,-216 106,-282 3,-5 10,-6 15,-3 5,3 6,10 3,15zm68 -23c-1,11 -3,22 -4,32 5,-17 9,-32 11,-43 -2,3 -4,7 -7,10zm6 199l0 2 1 -2c0,0 0,0 -1,0zm103 -188c19,-32 29,-46 35,-48 6,-16 10,-29 13,-38 -7,11 -15,26 -17,30 -10,19 -20,38 -30,56zm33 -42c-10,11 -35,55 -39,63 -14,26 -73,159 -67,185 16,-17 76,-163 106,-248zm-176 156c4,-28 8,-57 12,-86 -1,2 -2,4 -4,7 -15,57 -30,118 -38,160 9,-23 20,-51 30,-81z"/>
   <polygon class="fil5" points="3739,4546 3739,4292 3787,4292 3787,4405 3884,4292 3949,4292 3859,4391 3954,4546 3892,4546 3826,4427 3787,4470 3787,4546 "/>
   <path id="1" class="fil5" d="M3969 4421c0,-26 4,-48 11,-65 5,-13 13,-25 22,-35 9,-10 20,-18 31,-23 15,-7 32,-10 51,-10 35,0 63,12 84,35 21,23 32,56 32,97 0,41 -10,73 -31,96 -21,23 -49,35 -84,35 -35,0 -64,-12 -85,-35 -21,-23 -31,-55 -31,-95zm50 -2c0,29 6,51 19,66 12,15 28,22 48,22 19,0 35,-7 47,-22 12,-15 18,-37 18,-66 0,-29 -6,-51 -18,-65 -12,-14 -28,-22 -48,-22 -20,0 -36,7 -48,22 -12,15 -18,36 -18,66z"/>
   <path id="2" class="fil5" d="M4238 4292l95 0c19,0 33,1 42,2 9,2 18,5 25,10 7,5 13,12 18,21 5,9 7,19 7,30 0,12 -3,23 -9,33 -6,10 -14,17 -24,22 14,5 26,12 33,23 8,11 12,24 12,38 0,12 -2,23 -8,34 -5,11 -12,20 -21,26 -9,7 -19,11 -32,12 -8,1 -27,1 -58,2l-81 0 0 -254zm48 42l0 59 32 0c19,0 30,0 35,-1 8,-1 15,-4 19,-9 5,-5 7,-12 7,-20 0,-8 -2,-14 -6,-19 -4,-5 -10,-8 -18,-9 -5,-1 -18,-1 -41,-1l-28 0zm0 101l0 68 45 0c17,0 28,-1 33,-2 7,-1 13,-5 17,-10 4,-5 7,-13 7,-22 0,-8 -2,-14 -5,-19 -3,-5 -8,-9 -15,-12 -7,-2 -21,-4 -43,-4l-39 0z"/>
   <polygon id="3" class="fil5" points="4478,4546 4478,4292 4655,4292 4655,4335 4526,4335 4526,4392 4646,4392 4646,4435 4526,4435 4526,4503 4659,4503 4659,4546 "/>
   <path class="fil0" d="M3245 3295c-1,14 -5,89 -9,96 -2,4 -23,20 -27,24 -18,13 -6,15 4,28 26,35 21,16 16,82 -1,17 -2,33 -3,50 -1,21 -7,19 -21,33l-56 49c-10,7 -71,-6 -91,-7 -22,-1 -20,-2 -34,-18l-50 -56c-14,-13 -9,-23 -8,-41 1,-16 2,-88 8,-96 3,-4 23,-20 28,-23 23,-16 -28,-34 -27,-62l6 -102c1,-14 13,-20 23,-29 70,-60 51,-53 100,-48 16,1 32,3 48,5 24,2 19,1 33,18 8,10 16,19 24,29 36,45 36,37 32,70zm23 -24c1,-13 -13,-25 -21,-34 -9,-10 -17,-22 -25,-32 -9,-11 -17,-21 -26,-31 -15,-19 -16,-14 -40,-16 -18,-2 -35,-3 -52,-5 -12,-1 -36,-7 -45,1 -20,17 -42,36 -62,52 -3,2 -32,26 -32,26 -3,4 -6,94 -7,107 -2,25 -7,24 10,43 11,12 22,21 7,32 -13,10 -24,14 -24,32 0,35 -2,75 -5,110 -2,23 6,23 20,37 9,10 18,21 27,30 9,9 18,22 26,32 16,20 14,15 39,18 17,2 89,14 100,5 9,-7 22,-19 31,-27 12,-10 55,-44 57,-57l7 -107c3,-27 2,-19 -12,-39 -13,-18 -18,-15 1,-32 19,-16 17,-11 18,-38 1,-35 7,-70 8,-106z"/>
   <path class="fil0" d="M2944 1692c6,1 10,-3 16,-7 -4,-6 -4,0 -7,-8 7,-5 5,-2 12,0 10,3 19,-7 33,10l-6 -1c-2,4 -2,5 -3,7 -3,3 -2,0 -5,5l7 6c22,-5 15,-2 31,-2l12 -3c-2,-7 -6,-8 -7,-14 8,-7 12,-4 21,-2 9,2 18,-3 27,1 2,8 -2,4 -6,10 4,17 18,13 18,-6l-6 -4 5 -7 0 -20c-7,-9 -16,-17 -29,-15 -17,4 -23,16 -30,22 -4,3 -20,7 -28,-3 -2,-6 -10,-11 -18,-20 0,0 -12,-16 -28,-7 -8,4 -12,18 -14,26 -2,7 2,26 6,32z"/>
   <path class="fil0" d="M3099 3276c7,-2 23,-1 28,4 4,3 14,15 15,20 0,3 -1,30 -2,34 -1,7 -10,17 -16,20 -5,3 -25,1 -30,-3 -4,-4 -14,-16 -14,-22 0,-4 1,-28 2,-34 0,-9 8,-17 17,-20zm-7 -22c-8,6 -28,17 -30,27 -1,4 -3,52 -2,54 1,6 20,27 25,33 7,9 11,5 23,6 8,1 18,5 25,0 5,-3 28,-24 29,-27 0,-1 4,-54 4,-54 -1,-3 -22,-28 -25,-33 -8,-9 -42,-10 -48,-6z"/>
   <path class="fil0" d="M3090 3477c6,-2 23,-1 28,4 14,14 12,14 12,23 0,6 -1,30 -2,35 -2,6 -13,16 -18,17 -9,2 -23,1 -29,-7 -6,-7 -13,-12 -13,-22 -1,-20 0,-43 21,-50zm-8 -22c-4,3 -29,23 -31,26 -2,4 -5,47 -5,53 0,7 15,21 24,33 8,11 8,7 21,9 6,1 20,4 24,2 2,-1 30,-23 31,-25 2,-4 5,-47 5,-54 0,-10 -16,-28 -22,-36 -7,-9 -11,-5 -23,-7 -8,-1 -18,-4 -25,0z"/>
   <path class="fil6" d="M3697 3154c8,0 -1,0 6,-2l3 0c5,-1 5,-3 6,-7 -6,1 -14,2 -15,9z"/>
   <path class="fil6" d="M3730 3158c4,-2 5,1 5,-6 0,-5 0,-5 -2,-8 -4,4 -6,10 -3,14z"/>
   <path class="fil6" d="M3205 2413c7,3 11,-1 16,-6 -7,-1 -11,0 -16,6z"/>
   <path class="fil6" d="M3230 2408c2,4 -2,1 5,4 5,2 1,3 5,0 -5,-3 -4,-8 -10,-4z"/>
   <path class="fil7" d="M3058 1482c4,-1 9,-5 10,-8 -7,0 -1,-1 -6,3 -5,4 -4,0 -4,6z"/>
   <polygon class="fil6" points="3718,2730 3723,2731 3724,2725 3718,2725 "/>
   <path class="fil6" d="M3207 2397l0 4c5,0 5,-2 8,-6 -4,0 -4,-1 -8,2z"/>
   <path class="fil8" d="M3652 3773c6,0 5,0 6,-6l-6 0 0 5z"/>
   <path class="fil6" d="M3645 3068c3,-5 3,-4 -2,-7 0,1 -3,-2 -1,5 1,3 -1,0 3,2z"/>
   <path class="fil7" d="M3062 1706c3,-3 3,-2 1,-6 -4,2 -4,2 -1,6z"/>
   <path class="fil6" d="M2539 2204c4,2 3,3 8,0 -4,-2 -4,-2 -8,0z"/>
   <path class="fil6" d="M3086 2536c-1,-7 0,-1 -5,-7 1,4 2,6 5,7z"/>
   <path class="fil7" d="M2817 1444c4,-1 4,0 4,-5 -5,4 -2,-1 -4,5z"/>
   <path class="fil7" d="M3154 1684c1,3 -2,4 4,2 -2,-4 0,-4 -4,-2z"/>
   <path class="fil7" d="M3166 1683c7,3 2,1 4,-1 -5,-3 -2,-1 -4,1z"/>
   <path class="fil7" d="M2964 1707c6,2 2,1 5,-1 -1,-2 1,-2 -2,-1 -5,1 0,-1 -3,2z"/>
   <path class="fil7" d="M2891 1700c0,4 5,-1 2,-1 -3,0 -1,-4 -2,1z"/>
   <path class="fil7" d="M3168 1669c0,1 2,3 2,0 -1,-2 -2,-2 -2,0z"/>
   <path class="fil7" d="M2907 1627c1,1 -1,3 4,1l-4 -1z"/>
   <polygon class="fil7" points="3047,1705 3048,1700 "/>
   <path class="fil9" d="M2845 1496c2,3 5,4 7,6 7,-3 13,-6 16,-8 104,-40 9,-5 50,-13 3,-1 6,1 5,4 0,3 -3,6 -6,6 -13,3 -21,-1 -63,13 0,1 0,3 0,4l-10 4c-8,16 -5,7 -15,18 4,17 1,10 -1,26 -1,10 -9,17 3,23 8,-1 4,-6 12,-7 21,-1 20,-1 41,14 4,3 8,3 13,5 6,2 7,6 12,6 7,1 49,-17 50,-21 -8,-3 -31,-1 -38,-5l14 -22c11,4 5,26 27,21l-6 -7c1,0 4,-1 7,-2 -31,-32 -43,-45 -94,-20 26,-35 75,-22 96,6 3,2 6,4 8,6 1,-2 2,-3 2,-4l9 5 5 -6 5 4c1,-2 8,-25 8,-28 1,-23 -6,-10 7,-27l-2 -8 8 -3 -4 -7c-3,5 -3,6 -8,8 -3,-4 -1,-5 -3,-10l-9 -4 -2 -8c-5,-1 -6,0 -9,-1 -4,-1 -4,-4 -7,-6 -5,-2 -12,1 -16,2 -14,-10 -3,-2 -21,-3 -17,-1 -30,7 -50,6 -8,-1 -17,6 -25,10 -6,3 -8,3 -9,10 -1,10 -1,4 -6,11zm128 -30c6,4 5,3 3,8 -7,-2 -7,-2 -3,-8zm-71 72c4,2 4,1 2,6 -6,-2 -4,-1 -2,-6zm18 2c6,1 4,-2 4,5 -7,0 -4,1 -4,-5zm-41 33c-7,-1 -8,1 -13,-4 5,-5 12,-2 20,-4 -2,-5 0,-1 -6,-4 0,-7 0,-7 5,-12 5,3 5,8 8,13 6,3 6,0 10,7 -5,7 -3,3 -10,6 -6,3 -2,4 -10,5l-3 -8zm26 -4c4,-2 3,-2 7,2 -5,3 -4,3 -7,-2z"/>
   <g>
    <path class="fil7" d="M2837 1486c-30,18 -40,40 -50,73 -3,-35 16,-64 44,-84 3,-2 7,0 8,3 2,3 0,7 -3,8z"/>
   </g>
   <path class="fil6" d="M2834 1481c-25,13 -47,50 -47,78"/>
   <path class="fil7" d="M2748 1724c-1,6 -2,10 1,16 -6,4 -3,-1 -10,6 -5,4 -4,4 -6,10 -5,12 -5,11 -13,21 -1,11 2,13 1,22 11,-2 7,-7 15,-11l17 -11c-2,-13 -7,-2 -1,-29 1,-5 4,-9 5,-13 0,-3 0,-14 0,-18 -5,1 -1,0 -5,3l-3 2c-1,1 -1,0 -3,2z"/>
   <path class="fil7" d="M2713 1762c3,-3 5,-12 8,-17 4,-6 7,-12 11,-18 -2,-8 -10,-17 -18,-16 -11,-4 -7,15 -2,27 0,9 -4,19 0,25z"/>
   <g>
    <path class="fil7" d="M3118 1380c-4,28 -23,6 0,50 3,6 6,13 -1,17 0,-5 1,-6 -2,-10 -37,-63 -6,-38 -10,-57 0,-3 3,-6 6,-6 3,0 6,3 6,6z"/>
   </g>
   <path class="fil6" d="M3112 1380c0,8 -15,17 -8,35 4,10 20,24 13,33"/>
   <g>
    <path class="fil7" d="M2973 1368c-29,54 -40,17 -22,55 1,2 2,4 1,6 -36,-27 -6,-32 9,-64 1,-3 4,-5 8,-5 3,1 5,4 5,8z"/>
   </g>
   <path class="fil6" d="M2967 1367c-3,12 -44,41 -22,52 2,1 7,8 6,10"/>
   <path class="fil6" d="M2648 2184c5,5 8,3 12,-2 -3,0 -3,-1 -7,-1 -8,1 -3,1 -5,2z"/>
   <path class="fil6" d="M2596 2197c5,0 7,-1 10,-5l-10 5z"/>
   <path class="fil6" d="M2557 2205l8 1c-4,-3 -4,-3 -8,-1z"/>
   <path class="fil6" d="M3092 1894c2,-6 1,-8 8,-3 -1,6 -2,7 -8,3z"/>
   <path class="fil6" d="M3101 1912l-3 -6c7,-5 7,0 12,-8 1,6 0,13 -9,14z"/>
   <g>
    <path class="fil8" d="M2835 1999c-1,-1 -26,-25 -24,-32 -1,-2 -2,-4 -3,-6 -2,-6 -2,-9 -1,-11 -5,-7 -7,-13 -1,-14 -7,-9 -7,-16 0,-15 -3,-6 -5,-13 -4,-16 -5,-8 -6,-14 6,-6l0 0 0 0c5,4 14,11 26,23 20,21 74,47 74,47 -1,0 0,0 -1,0 -65,-25 -59,-26 -85,-52l-2 4c-1,0 -2,0 -3,-1 5,8 5,11 -2,10 6,8 15,20 5,18 6,10 9,17 3,16 1,1 2,2 2,3 6,3 8,8 6,11l9 9c3,2 4,6 2,9 -2,3 -6,4 -9,2zm72 -30l0 0 0 0 0 0z"/>
   </g>
   <path class="fil6" d="M2838 1994c0,0 -21,-20 -21,-21 14,-1 13,13 3,-3 -25,-38 19,15 -7,-24 -10,-15 1,-2 7,-3 -2,-1 -26,-26 -5,-15 5,2 -9,-16 -10,-17 -2,-4 26,12 8,3 -6,-3 -10,-17 -8,-16 5,1 25,28 37,36 14,10 49,33 65,35l1 0"/>
   <g>
    <path class="fil10" d="M2986 1527c-59,-34 -26,-17 -86,-33 36,-10 60,7 91,22 3,1 5,5 3,8 -1,3 -5,5 -8,3z"/>
   </g>
   <path class="fil6" d="M2988 1522c-33,-15 -34,-27 -77,-27 -4,0 -8,0 -12,0"/>
   <g>
    <path class="fil10" d="M2993 1509c-45,-12 -59,-17 -108,-27 -2,0 -3,-1 -4,-2 37,-7 78,9 113,16 3,0 6,3 6,6 0,3 -3,6 -6,6z"/>
   </g>
   <path class="fil6" d="M2994 1503c-14,0 -57,-23 -106,-22 -4,0 -3,0 -7,-1"/>
   <g>
    <path class="fil10" d="M3006 1545c-16,-25 -35,-32 -61,-47 33,8 51,13 71,40 2,3 1,7 -2,9 -3,2 -7,1 -9,-2z"/>
   </g>
   <path class="fil6" d="M3011 1542c-15,-25 -42,-34 -66,-43"/>
   <polygon class="fil11" points="2885,2896 2886,2896 2887,2894 "/>
   <path class="fil12" d="M3329 2899l9 0c4,0 5,5 4,9 -1,18 -17,27 -30,32l16 -41zm-29 52l0 0c23,1 49,-19 50,-38l0 -10c0,-5 -4,-12 -8,-13l-19 -1 -24 61zm-220 68l0 0c-5,-4 -23,-66 -23,-75 0,-2 67,-51 73,-51l0 4c-1,13 -44,119 -50,122zm-32 -80l0 0c0,9 9,41 12,50 3,11 10,42 21,42 9,0 29,-55 33,-66 7,-21 24,-51 25,-74l0 -4c0,-3 -2,-5 -5,-5l-2 0c-11,-1 -69,49 -84,56zm-60 72l0 0c1,-14 11,-25 21,-29 1,7 6,22 6,29 0,6 -3,8 -9,8l-10 0c-5,0 -8,-3 -8,-8zm-156 1l0 0 -4 0c-5,0 -12,-1 -12,-5 0,-4 5,-13 9,-13l43 2c-4,16 -18,17 -37,16zm564 -15l0 0 4 -26c3,1 18,13 26,17 8,4 25,8 24,19l0 7c-1,10 -15,21 -26,21l-6 0c-15,-1 -24,-21 -21,-36zm-55 -23l0 0 12 25 15 -34 26 1 -8 -27c-12,13 -25,32 -45,35zm97 -57l0 0c0,-9 11,-16 20,-16l2 0c8,0 12,7 11,15l0 1c-1,10 -2,15 -6,22 -9,-3 -29,-11 -28,-22zm-225 111l0 0 13 -37 -29 -1c-4,0 -25,35 -50,34l-12 -1 22 -54c6,2 7,11 6,18l24 1c5,0 22,-51 26,-58 -8,0 -15,-1 -23,-1 -7,0 -19,1 -17,-5 2,-6 10,-32 15,-32l16 1c8,0 13,5 13,13l-1 17c0,3 -1,3 -2,6l28 1c6,0 15,-31 18,-37l12 1c0,14 -19,55 -25,71 -5,12 -9,22 -14,34 -4,11 -8,28 -20,29zm-190 -110l0 0c3,-1 40,-31 40,-32 0,-5 -2,-3 -5,-3l-7 0c-16,-1 -24,19 -28,35zm249 113l0 0c1,-21 15,-40 20,-57 33,4 24,57 37,86 11,25 40,51 75,53 28,1 54,-8 69,-20 12,-10 34,-39 35,-59l-18 -1c-6,19 -42,46 -66,45l-16 -1c-26,-1 -46,-23 -54,-41 -4,-9 -9,-25 -11,-35 -4,-15 -16,-26 -17,-31 23,-1 61,-35 62,-61l0 -10c1,-17 -13,-27 -30,-28l-81 -4c-5,0 -7,13 -9,18 8,0 13,3 13,10l0 5c0,8 -25,63 -29,75 -7,18 -18,65 -39,64l-8 19 70 3c5,0 8,-14 11,-19 -6,0 -14,-5 -14,-10zm123 -103l0 0 -1 11c-1,18 17,31 30,38 17,9 35,10 33,34l0 4c-1,12 -19,28 -33,27l-6 0c-22,-1 -32,-18 -31,-39l1 -23c0,-3 1,-3 2,-6l-14 -1c-4,0 -8,13 -10,17 -1,3 -9,18 -9,18 -1,21 28,56 53,57l12 1c33,2 67,-33 69,-67l1 -11c2,-48 -62,-39 -61,-70l0 -7c1,-11 17,-21 29,-20 11,1 20,9 20,20l-1 13c0,6 -2,9 -3,13l18 1 20 -51c-5,-8 -34,-16 -49,-17 -35,-2 -68,22 -69,57zm-390 13l0 0c3,-12 11,-30 16,-41 6,-12 11,-27 27,-27l6 -18 -73 -4 -6 18c5,1 13,4 13,9 0,10 -23,65 -28,76 -5,11 -23,69 -34,69l-1 0c-7,0 -9,-20 -8,-28l7 -146 -29 -1c-4,0 -67,85 -74,95 -12,16 -24,33 -37,49 -4,6 -16,17 -22,21 -6,3 -10,1 -13,7 -3,5 -5,8 -6,15l73 4 8 -18c-8,0 -18,-4 -18,-11l0 -6c0,-5 10,-20 14,-20l57 3 0 5c-1,19 -17,31 -38,30 -10,16 -20,29 -46,28l-68 -3c1,-6 29,-61 34,-70 12,-23 23,-46 34,-69 10,-21 23,-49 35,-69 6,-10 16,-18 28,-23 10,-3 12,1 16,-9 3,-6 7,-12 9,-17l-120 -6 -12 24c17,1 29,8 28,24 0,9 -52,108 -60,125 -10,22 -20,41 -30,62 -8,18 -24,42 -49,41l-7 0 -11 24 207 10 26 -53c26,1 52,3 79,4 13,1 26,1 39,2 7,0 14,3 16,-3 1,-3 4,-12 4,-16 -7,-1 -14,-7 -14,-14 0,-6 9,-26 13,-29 3,-3 20,-15 24,-16 2,11 9,34 9,44 0,9 -5,14 -12,16 -7,2 -8,11 -10,18l190 9c5,0 20,-48 24,-55l-17 -1c-4,13 -32,34 -50,33l-24 -1 29 -73 3 0c10,0 16,12 16,21l11 1c6,0 17,-35 19,-41l-41 -2c2,-7 19,-52 23,-52l25 1c12,1 18,12 17,24l-1 12 12 1c5,0 11,-23 13,-27 3,-7 9,-21 11,-29l-190 -9 -7 18c7,0 12,3 11,10 0,7 -61,53 -70,58l-1 -1zm-397 149l0 0 0 1 225 11 27 -54 424 21 14 -36 -5 0c-7,0 -11,-2 -10,-9 0,-5 13,-38 15,-38 10,0 13,33 15,43 4,18 6,30 14,44 12,20 41,46 73,47l12 1c27,1 61,-12 73,-26 9,-10 15,-17 22,-29 4,-8 12,-35 14,-38l0 -2 -25 -1 6 -25 0 -9c1,-29 -16,-34 -18,-43l18 1 25 -64c-14,-11 -31,-20 -56,-21l-5 0c-25,-1 -59,14 -65,31 -5,-4 -7,-29 -32,-31l-390 -19 -12 33c21,1 12,16 7,29 -5,12 -9,23 -14,36 -5,12 -9,24 -14,35 -3,7 -8,31 -16,32 0,-4 -1,-4 -1,-9l8 -158 -42 -2c-9,0 -115,162 -137,166 2,-8 20,-42 25,-51 9,-16 18,-35 25,-51 8,-18 17,-33 25,-51 8,-17 21,-31 43,-30l21 -43 -138 -7 -21 43 13 1c20,1 23,10 15,25 -6,11 -11,22 -16,33 -10,21 -21,46 -33,67 -11,21 -22,45 -33,67 -11,24 -22,43 -56,42l-20 40zm267 -166l0 0 2 0 -2 11 0 15 -18 -1 19 -24zm12 -28l0 0 -5 63 -41 -2 45 -61 1 0z"/>
   <polygon class="fil11" points="3006,2942 3005,2941 3003,2944 "/>
   <path class="fil13" d="M2885 2896l2 -3 -1 3 -5 63 -41 -2 45 -61zm163 42l0 0c15,-7 73,-57 84,-56l2 0c3,0 5,2 5,5l0 4c-1,24 -18,53 -25,74 -4,11 -24,66 -33,66 -11,-1 -18,-31 -21,-42 -3,-9 -12,-42 -12,-50zm-41 4l0 0 -2 1 1 -3c3,-12 11,-30 16,-41 6,-12 11,-27 27,-27l6 -18 -73 -4 -6 18c5,1 13,4 13,9 0,10 -23,65 -28,76 -5,11 -23,69 -34,69l-1 0c-7,0 -9,-20 -8,-28l7 -146 -29 -1c-4,0 -67,85 -74,95 -12,16 -24,33 -37,49 -4,6 -16,17 -22,21 -6,3 -10,1 -13,7 -3,5 -5,8 -6,15l73 4 8 -18c-8,0 -18,-4 -18,-11l0 -6c0,-5 10,-20 14,-20l57 3 0 5c-1,19 -17,31 -38,30 -10,16 -20,29 -46,28l-68 -3c1,-6 29,-61 34,-70 12,-23 23,-46 34,-69 10,-21 23,-49 35,-69 6,-10 16,-18 28,-23 10,-3 12,1 16,-9 3,-6 7,-12 9,-17l-120 -6 -12 24c17,1 29,8 28,24 0,9 -52,108 -60,125 -10,22 -20,41 -30,62 -8,18 -24,42 -49,41l-7 0 -11 24 207 10 26 -53c26,1 52,3 79,4 13,1 26,1 39,2 7,0 14,3 16,-3 1,-3 4,-12 4,-16 -7,-1 -14,-7 -14,-14 0,-6 9,-26 13,-29 3,-3 20,-15 24,-16 2,11 9,34 9,44 0,9 -5,14 -12,16 -7,2 -8,11 -10,18l190 9c5,0 20,-48 24,-55l-17 -1c-4,13 -32,34 -50,33l-24 -1 29 -73 3 0c10,0 16,12 16,21l11 1c6,0 17,-35 19,-41l-41 -2c2,-7 19,-52 23,-52l25 1c12,1 18,12 17,24l-1 12 12 1c5,0 11,-23 13,-27 3,-7 9,-21 11,-29l-190 -9 -7 18c7,0 12,3 11,10 0,7 -61,53 -70,58zm388 -15l0 0 -1 11c-1,18 17,31 30,38 17,9 35,10 33,34l0 4c-1,12 -19,28 -33,27l-6 0c-22,-1 -32,-18 -31,-39l1 -23c0,-3 1,-3 2,-6l-14 -1c-4,0 -8,13 -10,17 -1,3 -9,18 -9,18 -1,21 28,56 53,57l12 1c33,2 67,-33 69,-67l1 -11c2,-48 -62,-39 -61,-70l0 -7c1,-11 17,-21 29,-20 11,1 20,9 20,20l-1 13c0,6 -2,9 -3,13l18 1 20 -51c-5,-8 -34,-16 -49,-17 -35,-2 -68,22 -69,57zm-70 -37l0 0 19 1c4,0 8,8 8,13l0 10c-1,19 -27,39 -50,38l24 -61zm-56 -7l0 0c2,-4 5,-18 9,-18l81 4c17,1 31,11 30,28l0 10c-1,26 -39,60 -62,61 1,4 13,16 17,31 2,9 8,26 11,35 8,18 28,40 54,41l16 1c24,1 61,-26 66,-45l18 1c-1,20 -23,49 -35,59 -15,13 -41,22 -69,20 -35,-2 -64,-28 -75,-53 -13,-29 -4,-82 -37,-86 -5,17 -19,36 -20,57 0,6 8,10 14,10 -3,4 -6,19 -11,19l-70 -3 8 -19c21,1 32,-46 39,-64 4,-12 29,-66 29,-75l0 -5c0,-8 -5,-10 -13,-10z"/>
   <path class="fil14" d="M3451 2737c1,-1 2,-5 0,-11 1,-2 -1,-4 -2,-10 1,-1 1,-3 1,-6 0,-2 -2,-4 -3,-6 -1,-6 -2,-12 -4,-18 -1,-3 -2,-6 -4,-9 -1,-7 -2,-13 -4,-20 0,0 1,0 1,0 -1,-6 -3,-14 -6,-18 1,-2 2,-5 2,-7 1,-1 3,-2 5,-2 1,4 2,9 3,13 2,5 4,9 5,13 -4,0 -7,2 -7,7 0,6 5,13 11,16 4,2 8,1 10,-2l0 54c0,5 -3,7 -8,6z"/>
   <path class="fil15" d="M3446 2734c-2,-5 -1,-8 0,-12 0,-2 -1,-5 -1,-7 -2,-5 -3,-8 -4,-13 -4,-6 -10,-12 -13,-18 -6,-9 -11,-18 -14,-26 -1,-1 -2,-1 -3,-2 -2,-6 -7,-15 -6,-19 0,-4 1,-7 3,-10 -1,-1 -2,-1 -4,-2 -2,-2 -2,-5 -2,-7 1,-4 3,-6 5,-9 2,-3 3,-5 4,-8 2,-1 3,-2 6,-2 2,1 4,2 7,3 1,0 2,1 3,0 1,-1 1,-3 1,-4 -1,-1 -1,-5 0,-6 0,-3 1,-6 3,-6l-19 -10c-6,-3 -10,-1 -10,5l0 119c0,6 5,12 10,15l35 18zm-39 -44l4 2 3 12 0 -10 4 2 0 18 -5 -2 -3 -12 0 10 -4 -2 0 -18zm12 6l5 3c7,3 5,11 3,10 4,1 4,11 -2,8l-6 -3 0 -18zm4 5l0 4 1 1c2,1 2,-3 0,-4l-1 0zm0 7l0 5 1 1c2,1 2,-4 0,-5l-1 -1zm10 -5l5 3 3 19 -4 -2 0 -3 -3 -1 -1 3 -4 -2 3 -16zm2 12l2 1 -1 -9 -1 8z"/>
   <path class="fil14" d="M3437 2591c3,4 5,9 2,12 2,2 -1,2 -2,4 -1,2 -4,2 -3,3 4,4 7,8 10,13 2,3 3,14 4,21 2,5 4,10 5,16 3,3 5,6 6,9l0 -57c0,-6 -5,-12 -10,-15l-12 -5z"/>
   <g>
    <path class="fil10" d="M3703 3685c53,-8 127,-45 134,38 -10,-13 -14,-33 -28,-42 -15,-10 -86,13 -105,17 -3,0 -6,-2 -7,-6 0,-3 2,-6 6,-7z"/>
   </g>
   <path class="fil6" d="M3704 3692c85,-5 101,-52 132,26l2 5"/>
   <g>
    <path class="fil10" d="M3637 3743c102,-19 50,-13 154,-17 -101,15 -51,6 -151,29 -3,1 -7,-1 -7,-5 -1,-3 1,-7 5,-7z"/>
   </g>
   <path class="fil6" d="M3638 3749c54,-11 97,-23 152,-23"/>
   <g>
    <path class="fil10" d="M3814 3828c-39,93 -52,107 -115,183l0 0c-6,6 -9,8 -10,6 -5,9 -13,20 -26,38 -35,46 -103,124 -167,132 76,-30 112,-69 161,-136 3,-3 13,-22 25,-41 -2,0 -2,-2 1,-7 3,-6 8,-10 13,-16 4,-7 8,-13 11,-18 1,-1 1,-3 2,-4 0,1 0,0 0,1l0 0c2,-3 3,-5 3,-5l5 4c0,2 -1,5 -2,8 2,-3 5,-5 7,-7l0 0 0 0c42,-55 48,-60 81,-141 1,-3 4,-6 7,-5 3,1 6,4 5,7zm-88 146l0 0 0 0 0 0z"/>
   </g>
   <path class="fil6" d="M3808 3827c-17,76 -114,178 -114,184 10,0 24,-38 29,-40 0,0 -16,20 -33,32 -14,10 13,-12 20,-33 5,-16 -6,17 -18,35 -33,55 -112,159 -179,175 -4,1 -15,8 -18,7"/>
   <path class="fil10" d="M3405 3733c-9,19 -19,40 -30,58 0,1 -1,1 -1,2 1,2 3,8 5,7 1,0 4,-3 5,-3 5,-3 11,-3 16,-2 -5,-2 -16,-5 -14,-11 2,-5 20,-12 26,-15 19,-9 38,-23 44,-44 3,-11 1,-27 -9,-34 -7,-5 -14,-3 -20,1 -32,23 -56,50 -65,89 0,2 -3,12 -4,20 0,0 0,-1 1,-1 3,-4 9,-15 15,-8 0,-1 1,-1 1,-2 11,-19 21,-39 30,-58 0,0 1,0 1,0 0,0 0,1 0,1zm-31 61c-4,7 -12,20 -16,19 -2,-1 -2,-5 -2,-9 -6,6 -5,-6 -7,-8 -1,-1 -3,4 -4,4 -1,2 -5,12 -8,9 0,0 0,0 0,0 -1,3 -3,4 -6,6 -11,5 -8,-4 -5,-10 1,-1 2,-4 3,-6 -4,4 -16,16 -19,16 -3,0 0,-8 -4,-12 -3,2 -5,6 -6,9 -1,1 -3,8 -5,8 -2,0 -2,-11 -2,-16 -1,2 -2,4 -3,7 -3,6 -13,22 -20,22 -6,0 -6,-10 -4,-18 -6,7 -12,12 -19,11 -2,0 -2,0 -3,-2 -1,-3 0,-6 1,-8 -2,1 -4,1 -6,2 -1,5 -1,9 -2,14 0,1 -2,12 -4,9 -1,-1 -3,-4 -4,-6 -1,-2 -4,-6 -9,-12 -6,1 -13,3 -18,2 -18,12 -43,24 -62,25 0,0 -1,0 -1,-1 0,0 0,-1 1,-1 18,-1 42,-12 60,-24 -2,0 -4,-1 -5,-3 -2,-3 -1,-9 0,-12 3,-9 11,-4 19,5 0,0 0,0 0,0 9,-7 17,-16 21,-27 2,-4 7,-15 8,-20 0,0 0,-1 0,-1 0,0 0,0 0,0l0 0c0,0 0,-1 1,-1 0,0 1,0 1,1l0 0 0 0c0,0 0,1 0,1 0,6 -1,14 -2,21 -1,9 -2,19 -4,29 2,-1 5,-2 8,-2 4,-3 10,-3 15,-4 2,0 3,0 4,0 0,0 0,0 0,0 0,1 -1,1 -2,0 -1,0 -2,0 -3,0 -1,0 -2,0 -3,1 -4,1 -8,2 -12,3 -2,2 -4,4 -3,8l0 1c5,1 9,-1 13,-4 3,-2 5,-5 8,-8 0,-2 1,-4 1,-5 2,-7 14,-48 18,-51 2,-1 1,5 1,5 -1,11 -9,36 -20,51 -2,9 -2,17 1,19 5,3 14,-9 16,-13 3,-5 6,-10 8,-15 0,0 1,-2 1,-2 0,0 0,0 0,0l0 0 0 0c0,2 0,11 0,12 0,0 0,5 1,4 1,-1 5,-10 7,-12 0,-1 4,-6 5,-5 5,4 0,13 4,11 4,-2 19,-16 19,-16 1,0 -1,3 -1,4 -2,5 -9,19 3,13 3,-1 5,-3 6,-6 -2,-3 -5,-13 -3,-13 2,0 4,6 4,8 0,2 0,3 0,5 0,1 1,1 1,1 4,-1 10,-23 12,-10 1,7 3,7 6,4 0,-2 0,-3 1,-4 6,-48 31,-80 69,-108 6,-5 13,-6 21,-2 11,7 14,23 11,34 -5,23 -25,38 -45,47 -5,2 -23,10 -25,14 -2,5 13,9 16,10 1,0 2,1 3,1 5,0 9,0 13,0 5,-2 12,-5 17,-10 -4,-5 2,-14 6,-17 3,-3 11,-9 15,-10 4,0 1,6 0,7 -4,6 -11,14 -19,20 4,4 15,1 22,-1 -1,-1 -1,-3 0,-6 2,-7 12,-19 19,-22 4,-2 9,-1 10,4 1,7 -6,14 -11,17 -3,2 -10,5 -17,8 3,4 15,0 19,-1 2,-1 6,-3 10,-5 2,-5 4,-10 5,-11 2,-2 3,1 3,3 0,3 -3,7 -7,9 -3,10 -7,23 -8,27 -3,7 -6,14 -10,22 29,-7 56,-21 56,-49 0,-7 -3,-11 -8,-16 5,5 8,9 8,17 -1,27 -27,41 -56,48 -6,12 -14,24 -23,31 -15,11 -33,5 -48,-3 -4,-3 -14,-10 -11,-16 3,-6 17,-5 23,-5 14,0 37,-2 58,-7 4,-8 7,-16 10,-22 2,-5 5,-17 8,-26 -5,3 -11,5 -14,6 -5,1 -13,3 -15,-1 -9,3 -19,5 -23,1 0,0 0,0 0,0 -4,3 -8,6 -12,8 4,-1 7,-2 11,-4 -4,2 -8,3 -12,4 -1,1 -2,1 -3,1 -8,3 -12,2 -20,0 -6,-1 -11,-1 -17,1 -2,1 -4,3 -5,4 -3,1 -4,-3 -6,-7zm35 3c4,1 6,1 11,0 -3,0 -7,1 -11,0zm-51 6c-1,5 -1,9 0,10 3,1 11,-13 15,-19 -1,-1 -1,-1 -2,-2 -4,-2 -11,8 -13,11 0,0 0,0 0,0zm-159 23c4,-3 9,-6 12,-9 -7,-7 -14,-12 -17,-6 -1,3 -3,10 -1,12 1,2 3,2 6,3zm18 -2c-2,-2 -3,-4 -5,-6 -3,3 -7,5 -11,8 5,0 10,-1 16,-2zm1 0c7,-2 14,-4 17,-5 0,0 0,0 1,0 0,-2 0,-3 1,-4 2,-13 4,-28 5,-41 0,1 -1,1 -1,1 -2,5 -5,10 -6,14 -4,11 -12,19 -20,27 0,0 -1,1 -1,1 2,2 4,4 5,6zm47 -11c9,-14 16,-35 19,-48 0,-1 1,-5 0,-6 -3,1 -12,30 -14,35 -1,3 -3,11 -5,19zm71 -4c0,-1 0,-3 0,-5 0,-1 -2,-6 -3,-7 -1,0 2,8 2,8 0,1 1,2 2,4zm-101 11c-2,1 -3,1 -5,2 -2,1 -7,2 -12,3 6,7 10,14 12,17 1,-3 3,-15 4,-22zm203 -34c8,-6 15,-13 19,-20 5,-8 1,-7 -5,-3 -6,4 -15,13 -15,20 0,1 0,2 1,3zm24 0c2,-1 3,-1 4,-1 8,-3 21,-9 24,-19 2,-6 -3,-9 -9,-6 -7,3 -17,14 -19,21 -1,2 -1,4 0,5zm31 -6c4,-3 7,-6 6,-9 0,-1 -1,-3 -2,-2 -1,1 -3,5 -4,10zm-20 51c-21,5 -43,7 -57,7 -6,0 -20,-1 -23,5 -3,6 6,13 10,15 15,9 33,14 48,2 9,-6 16,-18 21,-29z"/>
   <path class="fil1" d="M1883 1901c-126,-14 -246,-47 -358,-94 -56,-109 -26,-144 69,-126 99,77 202,143 307,194 -4,8 -10,16 -18,26zm-380 -104c-88,-39 -171,-88 -249,-144 -59,-152 6,-176 170,-119 45,43 91,83 137,121 -52,-14 -84,-13 -99,2 -34,-16 -87,-46 -102,-58 27,27 55,50 94,74 -5,25 12,68 48,124zm-277 -165c-66,-50 -128,-105 -185,-165 -53,-191 20,-222 185,-142 48,56 97,109 148,160 -100,-45 -164,-57 -193,-40 -30,-23 -67,-56 -78,-69 19,28 39,53 66,80 -18,28 2,88 56,176zm-236 -220c-76,-86 -145,-181 -204,-281 -5,-205 72,-221 212,-103 59,87 123,171 190,251 -109,-66 -181,-91 -216,-78 -23,-29 -50,-70 -58,-84 11,31 25,61 44,93 -27,26 -15,95 33,203zm-234 -332c-58,-105 -110,-221 -147,-340 18,-157 88,-149 196,-24 43,78 90,156 140,233 -70,-67 -119,-93 -150,-80 -23,-30 -53,-73 -61,-89 12,33 26,63 47,98 -27,26 -35,95 -24,202zm-172 -427c-10,-43 -19,-86 -24,-128 -10,-77 -17,-207 25,-291 47,132 108,270 180,409 -57,-72 -100,-109 -129,-112 -14,-35 -31,-89 -33,-107 2,36 6,69 17,109 -23,10 -35,51 -35,120z"/>
   <path class="fil1" d="M1708 1975c-176,-8 -345,-52 -503,-124 -30,-45 -7,-66 55,-69 23,15 46,29 70,43 120,69 246,119 378,150zm-526 -135c-62,-30 -123,-64 -181,-101 -72,-132 -51,-125 95,-79 41,35 83,67 128,98 -30,-3 -51,-1 -64,4 -35,-16 -84,-43 -99,-54 26,24 52,45 86,67 -5,14 7,37 35,66zm-235 -138c-50,-35 -98,-73 -144,-113 -68,-139 -33,-141 119,-98 39,43 80,85 123,124 -62,-21 -102,-29 -122,-24 -33,-19 -78,-50 -92,-62 22,26 46,49 77,72 -9,16 7,50 39,102zm-175 -141c-49,-45 -96,-93 -141,-143 -19,-22 -38,-44 -57,-67 -48,-161 11,-194 145,-131 5,8 10,16 16,25 47,73 99,143 155,209 -79,-30 -127,-41 -150,-34 -29,-25 -65,-61 -76,-75 17,29 36,56 63,84 -12,20 7,64 45,132zm-247 -272c-58,-78 -111,-161 -155,-248 -10,-154 46,-171 151,-89 43,53 87,104 133,154 13,25 27,49 41,73 -73,-37 -123,-46 -152,-31 -28,-21 -82,-74 -96,-91 21,36 44,67 80,103 -19,23 -19,66 -2,127zm-172 -283c-18,-38 -34,-76 -47,-114 -26,-74 -59,-199 -35,-290 58,95 122,188 191,277 -37,-26 -63,-28 -81,-10 -26,-28 -64,-77 -74,-94 16,37 34,71 63,110 -12,25 -18,66 -18,122z"/>
   <path class="fil1" d="M517 1444c12,14 24,28 36,42 -89,-50 -145,-67 -174,-54 -28,-21 -63,-48 -85,-61 21,27 42,51 70,75 -16,29 0,91 42,183 -76,-69 -147,-145 -207,-226 -36,-162 30,-169 166,-74 0,0 0,-1 0,-1 50,41 101,79 152,117zm-344 -78c-14,-20 -28,-41 -40,-62 -40,-67 -98,-183 -94,-277 71,75 146,148 225,216 -55,-36 -90,-46 -108,-34 -20,-24 -40,-51 -46,-62 11,25 22,48 38,73 -11,23 -2,73 25,146zm404 145c7,7 13,14 20,21 56,59 116,115 178,166 -87,-25 -142,-31 -167,-18 -27,-23 -70,-63 -96,-80 23,34 47,64 82,96 -7,25 18,68 72,129 -37,-23 -72,-48 -107,-74 -40,-30 -80,-62 -120,-96 -70,-177 -12,-210 139,-145zm220 206c53,42 107,81 164,117 -69,-12 -112,-11 -133,-1 -30,-14 -66,-32 -89,-39 23,20 47,38 75,55 -5,20 18,53 67,96 -61,-28 -120,-60 -177,-95 -80,-123 -37,-158 94,-133zm192 135c55,33 111,63 169,90 -38,-2 -63,1 -76,9 -23,-9 -58,-24 -78,-28 20,19 40,34 67,47 1,16 18,38 49,66 -75,-22 -148,-49 -219,-81 -68,-87 -29,-111 88,-103zm188 99c174,77 360,122 553,127 -169,28 -342,22 -514,-17 -26,-6 -51,-12 -77,-19 -61,-63 -40,-90 38,-91z"/>
   <path class="fil1" d="M333 1700c14,13 28,26 43,38 -50,-16 -81,-16 -96,0 -23,-14 -80,-62 -103,-75 18,25 63,62 95,87 -8,21 -2,56 17,104 -39,-33 -75,-67 -109,-103 -48,-52 -120,-143 -136,-228 92,65 190,123 289,177zm78 68c45,37 91,72 138,105 19,13 38,26 58,39 -68,-18 -109,-15 -123,6 -21,-11 -59,-35 -80,-43 20,21 45,38 75,55 -3,17 4,42 22,73 -65,-38 -129,-81 -188,-128 -45,-102 -6,-131 97,-106zm236 169c61,37 124,71 189,102 -61,3 -96,8 -111,18 -22,-8 -64,-29 -86,-35 23,19 46,36 78,50 2,14 22,34 57,61 -41,-16 -82,-33 -122,-51 -39,-18 -78,-38 -118,-60 -52,-95 -4,-116 113,-85zm218 115c47,21 94,40 142,57 -42,4 -69,10 -83,18 -24,-7 -56,-18 -75,-20 20,13 39,24 63,33 -3,13 14,30 47,53 -52,-13 -104,-29 -154,-48 -79,-68 -53,-77 61,-93zm191 73c56,18 113,32 170,44 -27,2 -44,7 -53,14 -25,-2 -65,-7 -86,-5 25,13 50,22 82,27 5,9 15,19 32,31 -62,-6 -123,-16 -185,-29 -85,-66 -68,-69 40,-81zm215 52c8,1 16,3 24,4 145,22 291,23 433,1 -166,53 -340,69 -512,54 -28,-30 -4,-49 55,-59z"/>
   <path class="fil1" d="M1234 2337c201,15 365,-9 556,-78 -182,99 -349,127 -558,130 -48,-17 -44,-35 3,-52z"/>
   <path class="fil1" d="M1601 2639c90,-33 177,-76 257,-129 43,-28 83,-60 121,-93 1,1 2,1 2,2 -100,112 -230,198 -371,256 -10,-8 -13,-19 -10,-35z"/>
   <path class="fil1" d="M1478 2677c34,-9 67,-19 100,-30 -2,7 -3,13 -2,18 -20,6 -40,12 -50,16 13,-1 32,-4 52,-9 2,4 5,7 10,10 -28,11 -56,20 -85,29 -4,1 -9,3 -14,4 -12,-10 -17,-23 -12,-39z"/>
   <path class="fil1" d="M1339 2706c36,-6 73,-13 109,-22 -1,5 -1,10 0,15 -25,7 -52,16 -65,21 17,-1 43,-7 69,-13 3,5 9,10 16,14 -39,10 -80,19 -121,25 -11,-11 -15,-24 -8,-41z"/>
   <path class="fil1" d="M1055 2731c9,-2 18,-3 27,-5 61,0 122,-3 182,-9 15,-2 30,-4 46,-6 -3,6 -4,12 -3,18 -25,4 -91,9 -113,14 27,3 79,-1 116,-4 2,4 6,9 11,12 -53,6 -107,8 -158,4 -28,-2 -71,-9 -108,-23z"/>
   <path class="fil1" d="M493 2118c41,24 84,47 128,68 -40,0 -66,7 -78,20 -24,-8 -76,-34 -97,-39 18,17 58,37 90,51 -5,15 2,36 22,61 -46,-20 -91,-43 -135,-68 -24,-36 -19,-54 -5,-68 17,-17 48,-25 76,-24zm187 95c52,23 106,43 161,61 -53,3 -82,9 -91,19 -27,-9 -70,-26 -88,-29 18,15 55,31 86,42 4,13 24,31 57,55 -60,-15 -120,-34 -177,-55 -4,-2 -8,-3 -13,-5 -26,-32 -33,-54 -21,-68 11,-14 41,-20 87,-21zm194 72c40,12 81,23 122,32 -30,8 -46,16 -51,25 -28,-5 -64,-12 -80,-12 17,10 50,19 80,25 6,12 28,26 63,43 -55,-5 -111,-14 -165,-27 -33,-29 -45,-47 -39,-60 6,-13 31,-20 71,-26zm175 41c41,6 83,10 123,11 -16,9 -26,17 -32,24 -24,-1 -51,-2 -63,0 14,6 36,9 59,12 0,9 10,17 29,23 -22,3 -44,4 -66,5 -15,0 -31,0 -46,0 -66,-45 -65,-54 -4,-75zm-656 -134c-42,-27 -82,-56 -118,-88 -16,-14 -36,-34 -55,-56 -19,-22 -36,-48 -47,-73 47,25 96,49 145,70 49,22 99,42 149,60 -43,-5 -72,-4 -88,4 -23,-10 -47,-21 -60,-24 11,10 30,21 50,32 -11,15 -2,40 24,75z"/>
   <path class="fil1" d="M903 2489c47,8 94,15 142,19 -38,15 -60,31 -66,47 -29,-2 -84,-11 -106,-9 23,11 68,19 104,24 2,16 16,32 42,47 -49,-3 -100,-8 -149,-17 -35,-26 -37,-44 -29,-62 7,-18 22,-36 61,-49zm206 23c56,3 113,2 169,-2 -49,24 -74,40 -77,54 -30,3 -77,4 -95,8 23,7 65,7 100,5 10,10 34,18 70,27 -61,9 -122,14 -183,14 -4,0 -9,0 -13,0 -71,-42 -57,-73 29,-107zm204 -5c41,-4 82,-10 123,-18 -25,20 -38,34 -38,44 -28,7 -62,14 -76,21 20,2 54,-3 84,-9 11,7 35,10 70,12 -52,17 -106,31 -160,41 -81,-28 -71,-49 -2,-92zm174 -29c67,-2 291,-97 344,-138 -17,20 -139,123 -188,145 -45,19 -109,64 -155,52 -47,-12 -42,-23 -1,-59zm-651 115c-48,-10 -96,-24 -140,-42 -40,-16 -102,-46 -139,-86 105,15 212,20 317,20 -46,11 -72,24 -82,38 -30,-5 -77,-16 -97,-17 20,12 59,23 92,30 0,16 17,35 49,56z"/>
   <g>
    <g>
     <rect class="fil16" x="5292" y="4252" width="405" height="75"/>
     <rect class="fil17" x="5292" y="4326" width="405" height="75"/>
     <rect class="fil18" x="5292" y="4401" width="405" height="75"/>
    </g>
    <polygon class="fil5" points="5332,4222 5319,4172 5292,4172 5292,4246 5307,4246 5307,4187 5325,4246 5339,4246 5358,4187 5358,4246 5372,4246 5372,4172 5348,4172 "/>
    <path id="1" class="fil5" d="M5400 4172l-16 74 16 0 4 -21 13 0 2 21 18 0 -13 -74 -25 0zm12 9l4 36 -10 0 6 -36z"/>
    <path id="2" class="fil5" d="M5447 4172l0 74 23 0c6,0 10,-1 14,-2 6,-2 9,-5 9,-10l0 -49c0,-4 -2,-7 -7,-9 -4,-2 -10,-3 -16,-3l-23 0zm17 7l6 0c4,0 6,2 6,7l0 45c0,5 -2,7 -6,7l-6 0 0 -59z"/>
    <polygon id="3" class="fil5" points="5505,4172 5505,4246 5540,4246 5540,4239 5521,4239 5521,4209 5540,4209 5540,4201 5521,4201 5521,4180 5540,4180 5540,4172 "/>
    <polygon id="4" class="fil5" points="5618,4172 5618,4246 5635,4246 5635,4172 "/>
    <polygon id="5" class="fil5" points="5685,4172 5685,4227 5669,4172 5647,4172 5647,4246 5658,4246 5658,4183 5679,4246 5697,4246 5697,4172 "/>
    <polygon class="fil5" points="5314,4544 5307,4484 5292,4484 5303,4559 5325,4559 5337,4484 5324,4484 "/>
    <polygon id="1" class="fil5" points="5346,4484 5346,4559 5377,4559 5377,4552 5361,4552 5361,4521 5377,4521 5377,4513 5361,4513 5361,4492 5377,4492 5377,4484 "/>
    <polygon id="2" class="fil5" points="5419,4484 5419,4540 5405,4484 5385,4484 5385,4559 5396,4559 5396,4495 5414,4559 5429,4559 5429,4484 "/>
    <polygon id="3" class="fil5" points="5440,4484 5440,4559 5471,4559 5471,4552 5455,4552 5455,4521 5471,4521 5471,4513 5455,4513 5455,4492 5471,4492 5471,4484 "/>
    <polygon id="4" class="fil5" points="5479,4484 5479,4492 5498,4492 5480,4550 5480,4559 5514,4559 5514,4552 5494,4552 5513,4493 5513,4484 "/>
    <path id="5" class="fil5" d="M5548 4484l0 61c0,5 -2,7 -6,7 -4,0 -6,-2 -6,-7l0 -61 -14 0 0 63c0,5 3,8 8,10 3,1 7,2 12,2 6,0 11,-1 14,-3 4,-2 5,-5 5,-9l0 -63 -14 0z"/>
    <polygon id="6" class="fil5" points="5573,4484 5573,4559 5604,4559 5604,4552 5587,4552 5587,4521 5603,4521 5603,4513 5587,4513 5587,4492 5604,4492 5604,4484 "/>
    <polygon id="7" class="fil5" points="5612,4484 5612,4559 5644,4559 5644,4552 5627,4552 5627,4484 "/>
    <path id="8" class="fil5" d="M5665 4484l-14 75 14 0 4 -22 11 0 2 22 15 0 -11 -75 -22 0zm11 9l3 37 -9 0 6 -37z"/>
    <g>
     <polygon class="fil1" points="5379,4372 5382,4381 5392,4380 5384,4386 5387,4395 5379,4389 5371,4395 5374,4386 5367,4380 5376,4381 "/>
     <polygon class="fil1" points="5407,4351 5409,4360 5419,4360 5411,4365 5414,4374 5407,4368 5399,4374 5402,4365 5394,4360 5404,4360 "/>
     <polygon class="fil1" points="5440,4339 5443,4348 5452,4348 5444,4353 5447,4362 5440,4357 5432,4362 5435,4353 5427,4348 5437,4348 "/>
     <polygon class="fil1" points="5474,4333 5477,4342 5487,4342 5479,4347 5482,4356 5474,4351 5467,4356 5470,4347 5462,4342 5471,4342 "/>
    </g>
    <g>
     <polygon class="fil1" points="5612,4372 5609,4381 5599,4380 5607,4386 5604,4395 5612,4389 5620,4395 5617,4386 5625,4380 5615,4381 "/>
     <polygon class="fil1" points="5585,4351 5582,4360 5572,4360 5580,4365 5577,4374 5585,4368 5593,4374 5590,4365 5598,4360 5588,4360 "/>
     <polygon class="fil1" points="5552,4339 5549,4348 5539,4348 5547,4353 5544,4362 5552,4357 5560,4362 5557,4353 5564,4348 5555,4348 "/>
     <polygon class="fil1" points="5517,4333 5514,4342 5504,4342 5512,4347 5509,4356 5517,4351 5525,4356 5522,4347 5530,4342 5520,4342 "/>
    </g>
   </g>
  </g>
 </g>
</svg>
